<svg height="1359pt" viewBox="0.00 0.00 932.67 1359.00" width="933pt" xmlns="http://www.w3.org/2000/svg" xmlns:xlink="http://www.w3.org/1999/xlink">
<g class="graph" id="graph0" transform="scale(1 1) rotate(0) translate(4 1355)">
<title>G</title>
<polygon fill="white" points="-4,4 -4,-1355 928.67,-1355 928.67,4 -4,4" stroke="none"/>
<!-- 4515113056 -->
<g class="node" id="node1"><title>4515113056</title>
<polygon fill="none" points="174.676,-1314.5 174.676,-1350.5 285.914,-1350.5 285.914,-1314.5 174.676,-1314.5" stroke="black"/>
<text font-family="Times,serif" font-size="14.00" text-anchor="middle" x="230.295" y="-1328.3">Item: InputLayer</text>
</g>
<!-- 4515113392 -->
<g class="node" id="node3"><title>4515113392</title>
<polygon fill="none" points="236.724,-1241.5 236.724,-1277.5 463.866,-1277.5 463.866,-1241.5 236.724,-1241.5" stroke="black"/>
<text font-family="Times,serif" font-size="14.00" text-anchor="middle" x="350.295" y="-1255.3">Movie-Embedding-MLP: Embedding</text>
</g>
<!-- 4515113056&#45;&gt;4515113392 -->
<g class="edge" id="edge1"><title>4515113056-&gt;4515113392</title>
<path d="M259.038,-1314.49C275.098,-1304.99 295.304,-1293.04 312.618,-1282.79" fill="none" stroke="black"/>
<polygon fill="black" points="314.546,-1285.72 321.371,-1277.61 310.982,-1279.69 314.546,-1285.72" stroke="black"/>
</g>
<!-- 112084624776 -->
<g class="node" id="node16"><title>112084624776</title>
<polygon fill="none" points="0,-1241.5 0,-1277.5 218.59,-1277.5 218.59,-1241.5 0,-1241.5" stroke="black"/>
<text font-family="Times,serif" font-size="14.00" text-anchor="middle" x="109.295" y="-1255.3">Movie-Embedding-MF: Embedding</text>
</g>
<!-- 4515113056&#45;&gt;112084624776 -->
<g class="edge" id="edge15"><title>4515113056-&gt;112084624776</title>
<path d="M201.312,-1314.49C185.118,-1304.99 164.744,-1293.04 147.286,-1282.79" fill="none" stroke="black"/>
<polygon fill="black" points="148.856,-1279.66 138.46,-1277.61 145.314,-1285.69 148.856,-1279.66" stroke="black"/>
</g>
<!-- 4408641744 -->
<g class="node" id="node2"><title>4408641744</title>
<polygon fill="none" points="645.286,-1314.5 645.286,-1350.5 757.304,-1350.5 757.304,-1314.5 645.286,-1314.5" stroke="black"/>
<text font-family="Times,serif" font-size="14.00" text-anchor="middle" x="701.295" y="-1328.3">User: InputLayer</text>
</g>
<!-- 112085071184 -->
<g class="node" id="node4"><title>112085071184</title>
<polygon fill="none" points="707.919,-1241.5 707.919,-1277.5 924.67,-1277.5 924.67,-1241.5 707.919,-1241.5" stroke="black"/>
<text font-family="Times,serif" font-size="14.00" text-anchor="middle" x="816.295" y="-1255.3">User-Embedding-MLP: Embedding</text>
</g>
<!-- 4408641744&#45;&gt;112085071184 -->
<g class="edge" id="edge2"><title>4408641744-&gt;112085071184</title>
<path d="M728.84,-1314.49C744.09,-1305.08 763.24,-1293.26 779.73,-1283.07" fill="none" stroke="black"/>
<polygon fill="black" points="781.905,-1285.85 788.576,-1277.61 778.228,-1279.89 781.905,-1285.85" stroke="black"/>
</g>
<!-- 112085982960 -->
<g class="node" id="node17"><title>112085982960</title>
<polygon fill="none" points="482.195,-1241.5 482.195,-1277.5 690.395,-1277.5 690.395,-1241.5 482.195,-1241.5" stroke="black"/>
<text font-family="Times,serif" font-size="14.00" text-anchor="middle" x="586.295" y="-1255.3">User-Embedding-MF: Embedding</text>
</g>
<!-- 4408641744&#45;&gt;112085982960 -->
<g class="edge" id="edge16"><title>4408641744-&gt;112085982960</title>
<path d="M673.75,-1314.49C658.5,-1305.08 639.349,-1293.26 622.86,-1283.07" fill="none" stroke="black"/>
<polygon fill="black" points="624.362,-1279.89 614.014,-1277.61 620.684,-1285.85 624.362,-1279.89" stroke="black"/>
</g>
<!-- 112084623992 -->
<g class="node" id="node5"><title>112084623992</title>
<polygon fill="none" points="274.993,-1168.5 274.993,-1204.5 451.597,-1204.5 451.597,-1168.5 274.993,-1168.5" stroke="black"/>
<text font-family="Times,serif" font-size="14.00" text-anchor="middle" x="363.295" y="-1182.3">FlattenMovies-MLP: Flatten</text>
</g>
<!-- 4515113392&#45;&gt;112084623992 -->
<g class="edge" id="edge3"><title>4515113392-&gt;112084623992</title>
<path d="M353.442,-1241.31C354.911,-1233.29 356.695,-1223.55 358.339,-1214.57" fill="none" stroke="black"/>
<polygon fill="black" points="361.819,-1215 360.177,-1204.53 354.933,-1213.73 361.819,-1215" stroke="black"/>
</g>
<!-- 4378375728 -->
<g class="node" id="node6"><title>4378375728</title>
<polygon fill="none" points="708.052,-1168.5 708.052,-1204.5 874.538,-1204.5 874.538,-1168.5 708.052,-1168.5" stroke="black"/>
<text font-family="Times,serif" font-size="14.00" text-anchor="middle" x="791.295" y="-1182.3">FlattenUsers-MLP: Flatten</text>
</g>
<!-- 112085071184&#45;&gt;4378375728 -->
<g class="edge" id="edge4"><title>112085071184-&gt;4378375728</title>
<path d="M810.243,-1241.31C807.357,-1233.12 803.838,-1223.12 800.621,-1213.98" fill="none" stroke="black"/>
<polygon fill="black" points="803.914,-1212.8 797.291,-1204.53 797.311,-1215.12 803.914,-1212.8" stroke="black"/>
</g>
<!-- 4515113224 -->
<g class="node" id="node7"><title>4515113224</title>
<polygon fill="none" points="309.493,-1095.5 309.493,-1131.5 437.097,-1131.5 437.097,-1095.5 309.493,-1095.5" stroke="black"/>
<text font-family="Times,serif" font-size="14.00" text-anchor="middle" x="373.295" y="-1109.3">dropout_1: Dropout</text>
</g>
<!-- 112084623992&#45;&gt;4515113224 -->
<g class="edge" id="edge5"><title>112084623992-&gt;4515113224</title>
<path d="M365.716,-1168.31C366.846,-1160.29 368.218,-1150.55 369.482,-1141.57" fill="none" stroke="black"/>
<polygon fill="black" points="372.968,-1141.92 370.896,-1131.53 366.036,-1140.94 372.968,-1141.92" stroke="black"/>
</g>
<!-- 112085499184 -->
<g class="node" id="node8"><title>112085499184</title>
<polygon fill="none" points="647.493,-1095.5 647.493,-1131.5 775.097,-1131.5 775.097,-1095.5 647.493,-1095.5" stroke="black"/>
<text font-family="Times,serif" font-size="14.00" text-anchor="middle" x="711.295" y="-1109.3">dropout_3: Dropout</text>
</g>
<!-- 4378375728&#45;&gt;112085499184 -->
<g class="edge" id="edge6"><title>4378375728-&gt;112085499184</title>
<path d="M771.929,-1168.31C761.808,-1159.33 749.259,-1148.19 738.208,-1138.39" fill="none" stroke="black"/>
<polygon fill="black" points="740.285,-1135.55 730.482,-1131.53 735.638,-1140.78 740.285,-1135.55" stroke="black"/>
</g>
<!-- 112085917424 -->
<g class="node" id="node9"><title>112085917424</title>
<polygon fill="none" points="465.626,-1022.5 465.626,-1058.5 564.963,-1058.5 564.963,-1022.5 465.626,-1022.5" stroke="black"/>
<text font-family="Times,serif" font-size="14.00" text-anchor="middle" x="515.295" y="-1036.3">Concat: Merge</text>
</g>
<!-- 4515113224&#45;&gt;112085917424 -->
<g class="edge" id="edge7"><title>4515113224-&gt;112085917424</title>
<path d="M407.307,-1095.49C426.748,-1085.77 451.322,-1073.49 472.114,-1063.09" fill="none" stroke="black"/>
<polygon fill="black" points="473.689,-1066.22 481.068,-1058.61 470.558,-1059.96 473.689,-1066.22" stroke="black"/>
</g>
<!-- 112085499184&#45;&gt;112085917424 -->
<g class="edge" id="edge8"><title>112085499184-&gt;112085917424</title>
<path d="M664.348,-1095.49C636.672,-1085.47 601.46,-1072.71 572.21,-1062.12" fill="none" stroke="black"/>
<polygon fill="black" points="573.132,-1058.73 562.538,-1058.61 570.748,-1065.31 573.132,-1058.73" stroke="black"/>
</g>
<!-- 112085764920 -->
<g class="node" id="node10"><title>112085764920</title>
<polygon fill="none" points="451.493,-949.5 451.493,-985.5 579.097,-985.5 579.097,-949.5 451.493,-949.5" stroke="black"/>
<text font-family="Times,serif" font-size="14.00" text-anchor="middle" x="515.295" y="-963.3">dropout_5: Dropout</text>
</g>
<!-- 112085917424&#45;&gt;112085764920 -->
<g class="edge" id="edge9"><title>112085917424-&gt;112085764920</title>
<path d="M515.295,-1022.31C515.295,-1014.29 515.295,-1004.55 515.295,-995.569" fill="none" stroke="black"/>
<polygon fill="black" points="518.795,-995.529 515.295,-985.529 511.795,-995.529 518.795,-995.529" stroke="black"/>
</g>
<!-- 112086436832 -->
<g class="node" id="node11"><title>112086436832</title>
<polygon fill="none" points="441.39,-876.5 441.39,-912.5 589.2,-912.5 589.2,-876.5 441.39,-876.5" stroke="black"/>
<text font-family="Times,serif" font-size="14.00" text-anchor="middle" x="515.295" y="-890.3">FullyConnected: Dense</text>
</g>
<!-- 112085764920&#45;&gt;112086436832 -->
<g class="edge" id="edge10"><title>112085764920-&gt;112086436832</title>
<path d="M515.295,-949.313C515.295,-941.289 515.295,-931.547 515.295,-922.569" fill="none" stroke="black"/>
<polygon fill="black" points="518.795,-922.529 515.295,-912.529 511.795,-922.529 518.795,-922.529" stroke="black"/>
</g>
<!-- 112086434816 -->
<g class="node" id="node12"><title>112086434816</title>
<polygon fill="none" points="430.514,-803.5 430.514,-839.5 600.076,-839.5 600.076,-803.5 430.514,-803.5" stroke="black"/>
<text font-family="Times,serif" font-size="14.00" text-anchor="middle" x="515.295" y="-817.3">Batch: BatchNormalization</text>
</g>
<!-- 112086436832&#45;&gt;112086434816 -->
<g class="edge" id="edge11"><title>112086436832-&gt;112086434816</title>
<path d="M515.295,-876.313C515.295,-868.289 515.295,-858.547 515.295,-849.569" fill="none" stroke="black"/>
<polygon fill="black" points="518.795,-849.529 515.295,-839.529 511.795,-849.529 518.795,-849.529" stroke="black"/>
</g>
<!-- 112086597360 -->
<g class="node" id="node13"><title>112086597360</title>
<polygon fill="none" points="451.107,-730.5 451.107,-766.5 579.483,-766.5 579.483,-730.5 451.107,-730.5" stroke="black"/>
<text font-family="Times,serif" font-size="14.00" text-anchor="middle" x="515.295" y="-744.3">Dropout-1: Dropout</text>
</g>
<!-- 112086434816&#45;&gt;112086597360 -->
<g class="edge" id="edge12"><title>112086434816-&gt;112086597360</title>
<path d="M515.295,-803.313C515.295,-795.289 515.295,-785.547 515.295,-776.569" fill="none" stroke="black"/>
<polygon fill="black" points="518.795,-776.529 515.295,-766.529 511.795,-776.529 518.795,-776.529" stroke="black"/>
</g>
<!-- 112086994000 -->
<g class="node" id="node14"><title>112086994000</title>
<polygon fill="none" points="435.559,-657.5 435.559,-693.5 595.031,-693.5 595.031,-657.5 435.559,-657.5" stroke="black"/>
<text font-family="Times,serif" font-size="14.00" text-anchor="middle" x="515.295" y="-671.3">FullyConnected-1: Dense</text>
</g>
<!-- 112086597360&#45;&gt;112086994000 -->
<g class="edge" id="edge13"><title>112086597360-&gt;112086994000</title>
<path d="M515.295,-730.313C515.295,-722.289 515.295,-712.547 515.295,-703.569" fill="none" stroke="black"/>
<polygon fill="black" points="518.795,-703.529 515.295,-693.529 511.795,-703.529 518.795,-703.529" stroke="black"/>
</g>
<!-- 112086761144 -->
<g class="node" id="node15"><title>112086761144</title>
<polygon fill="none" points="424.683,-584.5 424.683,-620.5 605.907,-620.5 605.907,-584.5 424.683,-584.5" stroke="black"/>
<text font-family="Times,serif" font-size="14.00" text-anchor="middle" x="515.295" y="-598.3">Batch-2: BatchNormalization</text>
</g>
<!-- 112086994000&#45;&gt;112086761144 -->
<g class="edge" id="edge14"><title>112086994000-&gt;112086761144</title>
<path d="M515.295,-657.313C515.295,-649.289 515.295,-639.547 515.295,-630.569" fill="none" stroke="black"/>
<polygon fill="black" points="518.795,-630.529 515.295,-620.529 511.795,-630.529 518.795,-630.529" stroke="black"/>
</g>
<!-- 112087744464 -->
<g class="node" id="node18"><title>112087744464</title>
<polygon fill="none" points="449.107,-511.5 449.107,-547.5 577.483,-547.5 577.483,-511.5 449.107,-511.5" stroke="black"/>
<text font-family="Times,serif" font-size="14.00" text-anchor="middle" x="513.295" y="-525.3">Dropout-2: Dropout</text>
</g>
<!-- 112086761144&#45;&gt;112087744464 -->
<g class="edge" id="edge17"><title>112086761144-&gt;112087744464</title>
<path d="M514.811,-584.313C514.585,-576.289 514.31,-566.547 514.057,-557.569" fill="none" stroke="black"/>
<polygon fill="black" points="517.555,-557.426 513.775,-547.529 510.558,-557.623 517.555,-557.426" stroke="black"/>
</g>
<!-- 4399310888 -->
<g class="node" id="node19"><title>4399310888</title>
<polygon fill="none" points="57.269,-1168.5 57.269,-1204.5 225.321,-1204.5 225.321,-1168.5 57.269,-1168.5" stroke="black"/>
<text font-family="Times,serif" font-size="14.00" text-anchor="middle" x="141.295" y="-1182.3">FlattenMovies-MF: Flatten</text>
</g>
<!-- 112084624776&#45;&gt;4399310888 -->
<g class="edge" id="edge18"><title>112084624776-&gt;4399310888</title>
<path d="M117.041,-1241.31C120.775,-1233.03 125.335,-1222.91 129.489,-1213.69" fill="none" stroke="black"/>
<polygon fill="black" points="132.702,-1215.08 133.62,-1204.53 126.32,-1212.21 132.702,-1215.08" stroke="black"/>
</g>
<!-- 4407942728 -->
<g class="node" id="node20"><title>4407942728</title>
<polygon fill="none" points="494.328,-1168.5 494.328,-1204.5 652.262,-1204.5 652.262,-1168.5 494.328,-1168.5" stroke="black"/>
<text font-family="Times,serif" font-size="14.00" text-anchor="middle" x="573.295" y="-1182.3">FlattenUsers-MF: Flatten</text>
</g>
<!-- 112085982960&#45;&gt;4407942728 -->
<g class="edge" id="edge19"><title>112085982960-&gt;4407942728</title>
<path d="M583.148,-1241.31C581.679,-1233.29 579.895,-1223.55 578.251,-1214.57" fill="none" stroke="black"/>
<polygon fill="black" points="581.657,-1213.73 576.413,-1204.53 574.771,-1215 581.657,-1213.73" stroke="black"/>
</g>
<!-- 112087744128 -->
<g class="node" id="node21"><title>112087744128</title>
<polygon fill="none" points="428.559,-438.5 428.559,-474.5 588.031,-474.5 588.031,-438.5 428.559,-438.5" stroke="black"/>
<text font-family="Times,serif" font-size="14.00" text-anchor="middle" x="508.295" y="-452.3">FullyConnected-2: Dense</text>
</g>
<!-- 112087744464&#45;&gt;112087744128 -->
<g class="edge" id="edge20"><title>112087744464-&gt;112087744128</title>
<path d="M512.085,-511.313C511.52,-503.289 510.833,-493.547 510.201,-484.569" fill="none" stroke="black"/>
<polygon fill="black" points="513.688,-484.258 509.494,-474.529 506.705,-484.75 513.688,-484.258" stroke="black"/>
</g>
<!-- 112084624160 -->
<g class="node" id="node22"><title>112084624160</title>
<polygon fill="none" points="129.493,-1095.5 129.493,-1131.5 257.097,-1131.5 257.097,-1095.5 129.493,-1095.5" stroke="black"/>
<text font-family="Times,serif" font-size="14.00" text-anchor="middle" x="193.295" y="-1109.3">dropout_2: Dropout</text>
</g>
<!-- 4399310888&#45;&gt;112084624160 -->
<g class="edge" id="edge21"><title>4399310888-&gt;112084624160</title>
<path d="M153.883,-1168.31C160.142,-1159.77 167.83,-1149.27 174.749,-1139.82" fill="none" stroke="black"/>
<polygon fill="black" points="177.738,-1141.66 180.823,-1131.53 172.091,-1137.53 177.738,-1141.66" stroke="black"/>
</g>
<!-- 112085423664 -->
<g class="node" id="node23"><title>112085423664</title>
<polygon fill="none" points="474.493,-1095.5 474.493,-1131.5 602.097,-1131.5 602.097,-1095.5 474.493,-1095.5" stroke="black"/>
<text font-family="Times,serif" font-size="14.00" text-anchor="middle" x="538.295" y="-1109.3">dropout_4: Dropout</text>
</g>
<!-- 4407942728&#45;&gt;112085423664 -->
<g class="edge" id="edge22"><title>4407942728-&gt;112085423664</title>
<path d="M564.822,-1168.31C560.738,-1160.03 555.751,-1149.91 551.207,-1140.69" fill="none" stroke="black"/>
<polygon fill="black" points="554.25,-1138.95 546.689,-1131.53 547.972,-1142.05 554.25,-1138.95" stroke="black"/>
</g>
<!-- 112087225176 -->
<g class="node" id="node24"><title>112087225176</title>
<polygon fill="none" points="425.559,-365.5 425.559,-401.5 585.031,-401.5 585.031,-365.5 425.559,-365.5" stroke="black"/>
<text font-family="Times,serif" font-size="14.00" text-anchor="middle" x="505.295" y="-379.3">FullyConnected-3: Dense</text>
</g>
<!-- 112087744128&#45;&gt;112087225176 -->
<g class="edge" id="edge23"><title>112087744128-&gt;112087225176</title>
<path d="M507.569,-438.313C507.23,-430.289 506.818,-420.547 506.439,-411.569" fill="none" stroke="black"/>
<polygon fill="black" points="509.934,-411.372 506.014,-401.529 502.94,-411.668 509.934,-411.372" stroke="black"/>
</g>
<!-- 112088890336 -->
<g class="node" id="node25"><title>112088890336</title>
<polygon fill="none" points="355.954,-1022.5 355.954,-1058.5 436.636,-1058.5 436.636,-1022.5 355.954,-1022.5" stroke="black"/>
<text font-family="Times,serif" font-size="14.00" text-anchor="middle" x="396.295" y="-1036.3">Dot: Merge</text>
</g>
<!-- 112084624160&#45;&gt;112088890336 -->
<g class="edge" id="edge24"><title>112084624160-&gt;112088890336</title>
<path d="M241.918,-1095.49C273.49,-1084.45 314.53,-1070.1 346.359,-1058.97" fill="none" stroke="black"/>
<polygon fill="black" points="347.637,-1062.23 355.92,-1055.62 345.325,-1055.62 347.637,-1062.23" stroke="black"/>
</g>
<!-- 112085423664&#45;&gt;112088890336 -->
<g class="edge" id="edge25"><title>112085423664-&gt;112088890336</title>
<path d="M504.282,-1095.49C484.842,-1085.77 460.268,-1073.49 439.476,-1063.09" fill="none" stroke="black"/>
<polygon fill="black" points="441.032,-1059.96 430.522,-1058.61 437.901,-1066.22 441.032,-1059.96" stroke="black"/>
</g>
<!-- 112089386176 -->
<g class="node" id="node26"><title>112089386176</title>
<polygon fill="none" points="435.559,-292.5 435.559,-328.5 553.031,-328.5 553.031,-292.5 435.559,-292.5" stroke="black"/>
<text font-family="Times,serif" font-size="14.00" text-anchor="middle" x="494.295" y="-306.3">Activation: Dense</text>
</g>
<!-- 112087225176&#45;&gt;112089386176 -->
<g class="edge" id="edge26"><title>112087225176-&gt;112089386176</title>
<path d="M502.632,-365.313C501.389,-357.289 499.88,-347.547 498.489,-338.569" fill="none" stroke="black"/>
<polygon fill="black" points="501.923,-337.875 496.933,-328.529 495.006,-338.947 501.923,-337.875" stroke="black"/>
</g>
<!-- 112089474160 -->
<g class="node" id="node27"><title>112089474160</title>
<polygon fill="none" points="366.454,-219.5 366.454,-255.5 524.136,-255.5 524.136,-219.5 366.454,-219.5" stroke="black"/>
<text font-family="Times,serif" font-size="14.00" text-anchor="middle" x="445.295" y="-233.3">Concat-MF-MLP: Merge</text>
</g>
<!-- 112088890336&#45;&gt;112089474160 -->
<g class="edge" id="edge27"><title>112088890336-&gt;112089474160</title>
<path d="M396.295,-1022.21C396.295,-995.176 396.295,-941.25 396.295,-895.5 396.295,-895.5 396.295,-895.5 396.295,-382.5 396.295,-339.507 416.112,-292.958 430.541,-264.764" fill="none" stroke="black"/>
<polygon fill="black" points="433.809,-266.071 435.379,-255.593 427.618,-262.805 433.809,-266.071" stroke="black"/>
</g>
<!-- 112089386176&#45;&gt;112089474160 -->
<g class="edge" id="edge28"><title>112089386176-&gt;112089474160</title>
<path d="M482.433,-292.313C476.535,-283.766 469.291,-273.269 462.771,-263.823" fill="none" stroke="black"/>
<polygon fill="black" points="465.608,-261.771 457.047,-255.529 459.847,-265.747 465.608,-261.771" stroke="black"/>
</g>
<!-- 112089888696 -->
<g class="node" id="node28"><title>112089888696</title>
<polygon fill="none" points="361.269,-146.5 361.269,-182.5 529.321,-182.5 529.321,-146.5 361.269,-146.5" stroke="black"/>
<text font-family="Times,serif" font-size="14.00" text-anchor="middle" x="445.295" y="-160.3">Combine-MF-MLP: Dense</text>
</g>
<!-- 112089474160&#45;&gt;112089888696 -->
<g class="edge" id="edge29"><title>112089474160-&gt;112089888696</title>
<path d="M445.295,-219.313C445.295,-211.289 445.295,-201.547 445.295,-192.569" fill="none" stroke="black"/>
<polygon fill="black" points="448.795,-192.529 445.295,-182.529 441.795,-192.529 448.795,-192.529" stroke="black"/>
</g>
<!-- 112089888752 -->
<g class="node" id="node29"><title>112089888752</title>
<polygon fill="none" points="365.559,-73.5 365.559,-109.5 525.031,-109.5 525.031,-73.5 365.559,-73.5" stroke="black"/>
<text font-family="Times,serif" font-size="14.00" text-anchor="middle" x="445.295" y="-87.3">FullyConnected-4: Dense</text>
</g>
<!-- 112089888696&#45;&gt;112089888752 -->
<g class="edge" id="edge30"><title>112089888696-&gt;112089888752</title>
<path d="M445.295,-146.313C445.295,-138.289 445.295,-128.547 445.295,-119.569" fill="none" stroke="black"/>
<polygon fill="black" points="448.795,-119.529 445.295,-109.529 441.795,-119.529 448.795,-119.529" stroke="black"/>
</g>
<!-- 112089753920 -->
<g class="node" id="node30"><title>112089753920</title>
<polygon fill="none" points="387.334,-0.5 387.334,-36.5 503.255,-36.5 503.255,-0.5 387.334,-0.5" stroke="black"/>
<text font-family="Times,serif" font-size="14.00" text-anchor="middle" x="445.295" y="-14.3">Prediction: Dense</text>
</g>
<!-- 112089888752&#45;&gt;112089753920 -->
<g class="edge" id="edge31"><title>112089888752-&gt;112089753920</title>
<path d="M445.295,-73.3129C445.295,-65.2895 445.295,-55.5475 445.295,-46.5691" fill="none" stroke="black"/>
<polygon fill="black" points="448.795,-46.5288 445.295,-36.5288 441.795,-46.5289 448.795,-46.5288" stroke="black"/>
</g>
</g>
</svg>