<?xml version="1.0" encoding="UTF-8" standalone="no"?>
<!DOCTYPE svg PUBLIC "-//W3C//DTD SVG 1.1//EN"
 "http://www.w3.org/Graphics/SVG/1.1/DTD/svg11.dtd">
<!-- Generated by graphviz version 2.40.1 (20161225.0304)
 -->
<!-- Title: %3 Pages: 1 -->
<svg width="383pt" height="233pt"
 viewBox="0.00 0.00 382.55 232.91" xmlns="http://www.w3.org/2000/svg" xmlns:xlink="http://www.w3.org/1999/xlink">
<g id="graph0" class="graph" transform="scale(1 1) rotate(0) translate(4 228.9066)">
<title>%3</title>
<polygon fill="#ffffff" stroke="transparent" points="-4,4 -4,-228.9066 378.5513,-228.9066 378.5513,4 -4,4"/>
<g id="clust1" class="cluster">
<title>cluster20</title>
<path fill="none" stroke="#000000" d="M130.4472,-8C130.4472,-8 232.4472,-8 232.4472,-8 238.4472,-8 244.4472,-14 244.4472,-20 244.4472,-20 244.4472,-109.9533 244.4472,-109.9533 244.4472,-115.9533 238.4472,-121.9533 232.4472,-121.9533 232.4472,-121.9533 130.4472,-121.9533 130.4472,-121.9533 124.4472,-121.9533 118.4472,-115.9533 118.4472,-109.9533 118.4472,-109.9533 118.4472,-20 118.4472,-20 118.4472,-14 124.4472,-8 130.4472,-8"/>
<text text-anchor="middle" x="229.4472" y="-15.8" font-family="Times,serif" font-size="14.00" fill="#000000">20</text>
</g>
<!-- kernel_std -->
<g id="node1" class="node">
<title>kernel_std</title>
<ellipse fill="none" stroke="#000000" cx="54.4472" cy="-187.43" rx="54.3945" ry="37.4533"/>
<text text-anchor="middle" x="54.4472" y="-198.73" font-family="Times,serif" font-size="14.00" fill="#000000">kernel_std</text>
<text text-anchor="middle" x="54.4472" y="-183.73" font-family="Times,serif" font-size="14.00" fill="#000000">~</text>
<text text-anchor="middle" x="54.4472" y="-168.73" font-family="Times,serif" font-size="14.00" fill="#000000">Lognormal</text>
</g>
<!-- y -->
<g id="node4" class="node">
<title>y</title>
<ellipse fill="#d3d3d3" stroke="#000000" cx="181.4472" cy="-76.4767" rx="55.3091" ry="37.4533"/>
<text text-anchor="middle" x="181.4472" y="-87.7767" font-family="Times,serif" font-size="14.00" fill="#000000">y</text>
<text text-anchor="middle" x="181.4472" y="-72.7767" font-family="Times,serif" font-size="14.00" fill="#000000">~</text>
<text text-anchor="middle" x="181.4472" y="-57.7767" font-family="Times,serif" font-size="14.00" fill="#000000">MvNormal</text>
</g>
<!-- kernel_std&#45;&gt;y -->
<g id="edge1" class="edge">
<title>kernel_std&#45;&gt;y</title>
<path fill="none" stroke="#000000" d="M88.1475,-157.9878C103.809,-144.3052 122.5982,-127.89 139.1976,-113.388"/>
<polygon fill="#000000" stroke="#000000" points="141.9191,-115.6579 147.1472,-106.4428 137.3136,-110.3863 141.9191,-115.6579"/>
</g>
<!-- kernel_ls -->
<g id="node2" class="node">
<title>kernel_ls</title>
<ellipse fill="none" stroke="#000000" cx="181.4472" cy="-187.43" rx="54.3945" ry="37.4533"/>
<text text-anchor="middle" x="181.4472" y="-198.73" font-family="Times,serif" font-size="14.00" fill="#000000">kernel_ls</text>
<text text-anchor="middle" x="181.4472" y="-183.73" font-family="Times,serif" font-size="14.00" fill="#000000">~</text>
<text text-anchor="middle" x="181.4472" y="-168.73" font-family="Times,serif" font-size="14.00" fill="#000000">Lognormal</text>
</g>
<!-- kernel_ls&#45;&gt;y -->
<g id="edge2" class="edge">
<title>kernel_ls&#45;&gt;y</title>
<path fill="none" stroke="#000000" d="M181.4472,-149.8662C181.4472,-141.6423 181.4472,-132.8301 181.4472,-124.267"/>
<polygon fill="#000000" stroke="#000000" points="184.9473,-124.0017 181.4472,-114.0017 177.9473,-124.0017 184.9473,-124.0017"/>
</g>
<!-- noise_sigma -->
<g id="node3" class="node">
<title>noise_sigma</title>
<ellipse fill="none" stroke="#000000" cx="314.4472" cy="-187.43" rx="60.2083" ry="37.4533"/>
<text text-anchor="middle" x="314.4472" y="-198.73" font-family="Times,serif" font-size="14.00" fill="#000000">noise_sigma</text>
<text text-anchor="middle" x="314.4472" y="-183.73" font-family="Times,serif" font-size="14.00" fill="#000000">~</text>
<text text-anchor="middle" x="314.4472" y="-168.73" font-family="Times,serif" font-size="14.00" fill="#000000">Lognormal</text>
</g>
<!-- noise_sigma&#45;&gt;y -->
<g id="edge3" class="edge">
<title>noise_sigma&#45;&gt;y</title>
<path fill="none" stroke="#000000" d="M278.4555,-157.4044C261.7772,-143.4908 241.8301,-126.8502 224.3728,-112.2867"/>
<polygon fill="#000000" stroke="#000000" points="226.4686,-109.4771 216.5477,-105.7587 221.9844,-114.8523 226.4686,-109.4771"/>
</g>
</g>
</svg>
