<?xml version="1.0" encoding="UTF-8" standalone="no"?>
<!DOCTYPE svg PUBLIC "-//W3C//DTD SVG 1.1//EN"
 "http://www.w3.org/Graphics/SVG/1.1/DTD/svg11.dtd">
<!-- Generated by graphviz version 2.40.1 (20161225.0304)
 -->
<!-- Title: %3 Pages: 1 -->
<svg width="208pt" height="260pt"
 viewBox="0.00 0.00 208.00 259.91" xmlns="http://www.w3.org/2000/svg" xmlns:xlink="http://www.w3.org/1999/xlink">
<g id="graph0" class="graph" transform="scale(1 1) rotate(0) translate(4 255.9066)">
<title>%3</title>
<polygon fill="#ffffff" stroke="transparent" points="-4,4 -4,-255.9066 204,-255.9066 204,4 -4,4"/>
<g id="clust1" class="cluster">
<title>cluster3</title>
<path fill="none" stroke="#000000" d="M20,-129.9533C20,-129.9533 96,-129.9533 96,-129.9533 102,-129.9533 108,-135.9533 108,-141.9533 108,-141.9533 108,-231.9066 108,-231.9066 108,-237.9066 102,-243.9066 96,-243.9066 96,-243.9066 20,-243.9066 20,-243.9066 14,-243.9066 8,-237.9066 8,-231.9066 8,-231.9066 8,-141.9533 8,-141.9533 8,-135.9533 14,-129.9533 20,-129.9533"/>
<text text-anchor="middle" x="96.5" y="-137.7533" font-family="Times,serif" font-size="14.00" fill="#000000">3</text>
</g>
<g id="clust2" class="cluster">
<title>cluster200 x 3</title>
<path fill="none" stroke="#000000" d="M128,-140.93C128,-140.93 180,-140.93 180,-140.93 186,-140.93 192,-146.93 192,-152.93 192,-152.93 192,-220.93 192,-220.93 192,-226.93 186,-232.93 180,-232.93 180,-232.93 128,-232.93 128,-232.93 122,-232.93 116,-226.93 116,-220.93 116,-220.93 116,-152.93 116,-152.93 116,-146.93 122,-140.93 128,-140.93"/>
<text text-anchor="middle" x="163" y="-148.73" font-family="Times,serif" font-size="14.00" fill="#000000">200 x 3</text>
</g>
<g id="clust3" class="cluster">
<title>cluster200</title>
<path fill="none" stroke="#000000" d="M54,-8C54,-8 142,-8 142,-8 148,-8 154,-14 154,-20 154,-20 154,-109.9533 154,-109.9533 154,-115.9533 148,-121.9533 142,-121.9533 142,-121.9533 54,-121.9533 54,-121.9533 48,-121.9533 42,-115.9533 42,-109.9533 42,-109.9533 42,-20 42,-20 42,-14 48,-8 54,-8"/>
<text text-anchor="middle" x="135.5" y="-15.8" font-family="Times,serif" font-size="14.00" fill="#000000">200</text>
</g>
<!-- theta -->
<g id="node1" class="node">
<title>theta</title>
<ellipse fill="none" stroke="#000000" cx="58" cy="-198.43" rx="41.9398" ry="37.4533"/>
<text text-anchor="middle" x="58" y="-209.73" font-family="Times,serif" font-size="14.00" fill="#000000">theta</text>
<text text-anchor="middle" x="58" y="-194.73" font-family="Times,serif" font-size="14.00" fill="#000000">~</text>
<text text-anchor="middle" x="58" y="-179.73" font-family="Times,serif" font-size="14.00" fill="#000000">Normal</text>
</g>
<!-- Y_obs -->
<g id="node3" class="node">
<title>Y_obs</title>
<ellipse fill="#d3d3d3" stroke="#000000" cx="98" cy="-76.4767" rx="48.1667" ry="37.4533"/>
<text text-anchor="middle" x="98" y="-87.7767" font-family="Times,serif" font-size="14.00" fill="#000000">Y_obs</text>
<text text-anchor="middle" x="98" y="-72.7767" font-family="Times,serif" font-size="14.00" fill="#000000">~</text>
<text text-anchor="middle" x="98" y="-57.7767" font-family="Times,serif" font-size="14.00" fill="#000000">Bernoulli</text>
</g>
<!-- theta&#45;&gt;Y_obs -->
<g id="edge2" class="edge">
<title>theta&#45;&gt;Y_obs</title>
<path fill="none" stroke="#000000" d="M69.893,-162.1701C73.967,-149.7492 78.5812,-135.6812 82.876,-122.5872"/>
<polygon fill="#000000" stroke="#000000" points="86.2928,-123.4001 86.0837,-112.8074 79.6414,-121.2185 86.2928,-123.4001"/>
</g>
<!-- features -->
<g id="node2" class="node">
<title>features</title>
<path fill="#d3d3d3" stroke="#000000" d="M171.5,-224.93C171.5,-224.93 136.5,-224.93 136.5,-224.93 130.5,-224.93 124.5,-218.93 124.5,-212.93 124.5,-212.93 124.5,-183.93 124.5,-183.93 124.5,-177.93 130.5,-171.93 136.5,-171.93 136.5,-171.93 171.5,-171.93 171.5,-171.93 177.5,-171.93 183.5,-177.93 183.5,-183.93 183.5,-183.93 183.5,-212.93 183.5,-212.93 183.5,-218.93 177.5,-224.93 171.5,-224.93"/>
<text text-anchor="middle" x="154" y="-209.73" font-family="Times,serif" font-size="14.00" fill="#000000">features</text>
<text text-anchor="middle" x="154" y="-194.73" font-family="Times,serif" font-size="14.00" fill="#000000">~</text>
<text text-anchor="middle" x="154" y="-179.73" font-family="Times,serif" font-size="14.00" fill="#000000">Data</text>
</g>
<!-- features&#45;&gt;Y_obs -->
<g id="edge1" class="edge">
<title>features&#45;&gt;Y_obs</title>
<path fill="none" stroke="#000000" d="M141.7106,-171.6668C134.9191,-156.8769 126.3045,-138.1165 118.5217,-121.1676"/>
<polygon fill="#000000" stroke="#000000" points="121.6541,-119.6018 114.3004,-111.9746 115.2927,-122.5229 121.6541,-119.6018"/>
</g>
</g>
</svg>
