<?xml version="1.0" encoding="UTF-8" standalone="no"?>
<!DOCTYPE svg PUBLIC "-//W3C//DTD SVG 1.1//EN"
 "http://www.w3.org/Graphics/SVG/1.1/DTD/svg11.dtd">
<!-- Generated by graphviz version 2.42.3 (20191010.1750)
 -->
<!-- Title: %3 Pages: 1 -->
<svg width="581pt" height="260pt"
 viewBox="0.00 0.00 581.39 259.91" xmlns="http://www.w3.org/2000/svg" xmlns:xlink="http://www.w3.org/1999/xlink">
<g id="graph0" class="graph" transform="scale(1 1) rotate(0) translate(4 255.91)">
<title>%3</title>
<polygon fill="white" stroke="transparent" points="-4,4 -4,-255.91 577.39,-255.91 577.39,4 -4,4"/>
<g id="clust1" class="cluster">
<title>cluster3 x 1</title>
<path fill="none" stroke="black" d="M453.39,-129.95C453.39,-129.95 553.39,-129.95 553.39,-129.95 559.39,-129.95 565.39,-135.95 565.39,-141.95 565.39,-141.95 565.39,-231.91 565.39,-231.91 565.39,-237.91 559.39,-243.91 553.39,-243.91 553.39,-243.91 453.39,-243.91 453.39,-243.91 447.39,-243.91 441.39,-237.91 441.39,-231.91 441.39,-231.91 441.39,-141.95 441.39,-141.95 441.39,-135.95 447.39,-129.95 453.39,-129.95"/>
<text text-anchor="middle" x="543.39" y="-137.75" font-family="Times,serif" font-size="14.00">3 x 1</text>
</g>
<g id="clust2" class="cluster">
<title>cluster21</title>
<path fill="none" stroke="black" d="M261.39,-8C261.39,-8 363.39,-8 363.39,-8 369.39,-8 375.39,-14 375.39,-20 375.39,-20 375.39,-109.95 375.39,-109.95 375.39,-115.95 369.39,-121.95 363.39,-121.95 363.39,-121.95 261.39,-121.95 261.39,-121.95 255.39,-121.95 249.39,-115.95 249.39,-109.95 249.39,-109.95 249.39,-20 249.39,-20 249.39,-14 255.39,-8 261.39,-8"/>
<text text-anchor="middle" x="360.39" y="-15.8" font-family="Times,serif" font-size="14.00">21</text>
</g>
<!-- global_noise_sigma -->
<g id="node1" class="node">
<title>global_noise_sigma</title>
<ellipse fill="none" stroke="black" cx="88.39" cy="-198.43" rx="88.28" ry="37.45"/>
<text text-anchor="middle" x="88.39" y="-209.73" font-family="Times,serif" font-size="14.00">global_noise_sigma</text>
<text text-anchor="middle" x="88.39" y="-194.73" font-family="Times,serif" font-size="14.00">~</text>
<text text-anchor="middle" x="88.39" y="-179.73" font-family="Times,serif" font-size="14.00">Lognormal</text>
</g>
<!-- y -->
<g id="node5" class="node">
<title>y</title>
<ellipse fill="lightgrey" stroke="black" cx="312.39" cy="-76.48" rx="55.31" ry="37.45"/>
<text text-anchor="middle" x="312.39" y="-87.78" font-family="Times,serif" font-size="14.00">y</text>
<text text-anchor="middle" x="312.39" y="-72.78" font-family="Times,serif" font-size="14.00">~</text>
<text text-anchor="middle" x="312.39" y="-57.78" font-family="Times,serif" font-size="14.00">MvNormal</text>
</g>
<!-- global_noise_sigma&#45;&gt;y -->
<g id="edge4" class="edge">
<title>global_noise_sigma&#45;&gt;y</title>
<path fill="none" stroke="black" d="M131.06,-165.18C147.81,-153.29 167.52,-140.23 186.39,-129.95 207.96,-118.2 232.72,-107.36 254.55,-98.63"/>
<polygon fill="black" stroke="black" points="256.01,-101.81 264.03,-94.89 253.44,-95.3 256.01,-101.81"/>
</g>
<!-- local_ls -->
<g id="node2" class="node">
<title>local_ls</title>
<ellipse fill="none" stroke="black" cx="249.39" cy="-198.43" rx="54.39" ry="37.45"/>
<text text-anchor="middle" x="249.39" y="-209.73" font-family="Times,serif" font-size="14.00">local_ls</text>
<text text-anchor="middle" x="249.39" y="-194.73" font-family="Times,serif" font-size="14.00">~</text>
<text text-anchor="middle" x="249.39" y="-179.73" font-family="Times,serif" font-size="14.00">Lognormal</text>
</g>
<!-- local_ls&#45;&gt;y -->
<g id="edge3" class="edge">
<title>local_ls&#45;&gt;y</title>
<path fill="none" stroke="black" d="M267.44,-163.06C274.3,-149.99 282.21,-134.94 289.46,-121.13"/>
<polygon fill="black" stroke="black" points="292.56,-122.75 294.11,-112.27 286.37,-119.5 292.56,-122.75"/>
</g>
<!-- global_std -->
<g id="node3" class="node">
<title>global_std</title>
<ellipse fill="none" stroke="black" cx="376.39" cy="-198.43" rx="54.39" ry="37.45"/>
<text text-anchor="middle" x="376.39" y="-209.73" font-family="Times,serif" font-size="14.00">global_std</text>
<text text-anchor="middle" x="376.39" y="-194.73" font-family="Times,serif" font-size="14.00">~</text>
<text text-anchor="middle" x="376.39" y="-179.73" font-family="Times,serif" font-size="14.00">Lognormal</text>
</g>
<!-- global_std&#45;&gt;y -->
<g id="edge2" class="edge">
<title>global_std&#45;&gt;y</title>
<path fill="none" stroke="black" d="M358.05,-163.06C351.02,-149.88 342.91,-134.68 335.49,-120.77"/>
<polygon fill="black" stroke="black" points="338.53,-119.03 330.73,-111.86 332.35,-122.33 338.53,-119.03"/>
</g>
<!-- param_ls -->
<g id="node4" class="node">
<title>param_ls</title>
<ellipse fill="none" stroke="black" cx="503.39" cy="-198.43" rx="54.39" ry="37.45"/>
<text text-anchor="middle" x="503.39" y="-209.73" font-family="Times,serif" font-size="14.00">param_ls</text>
<text text-anchor="middle" x="503.39" y="-194.73" font-family="Times,serif" font-size="14.00">~</text>
<text text-anchor="middle" x="503.39" y="-179.73" font-family="Times,serif" font-size="14.00">Lognormal</text>
</g>
<!-- param_ls&#45;&gt;y -->
<g id="edge1" class="edge">
<title>param_ls&#45;&gt;y</title>
<path fill="none" stroke="black" d="M477.75,-165.06C466.89,-152.88 453.5,-139.64 439.39,-129.95 419,-115.95 394.3,-104.69 372.13,-96.23"/>
<polygon fill="black" stroke="black" points="373.06,-92.85 362.47,-92.67 370.64,-99.42 373.06,-92.85"/>
</g>
</g>
</svg>
