<?xml version="1.0" encoding="UTF-8" standalone="no"?>
<!DOCTYPE svg PUBLIC "-//W3C//DTD SVG 1.1//EN"
 "http://www.w3.org/Graphics/SVG/1.1/DTD/svg11.dtd">
<!-- Generated by graphviz version 2.42.3 (20191010.1750)
 -->
<!-- Title: %3 Pages: 1 -->
<svg width="383pt" height="233pt"
 viewBox="0.00 0.00 382.55 232.91" xmlns="http://www.w3.org/2000/svg" xmlns:xlink="http://www.w3.org/1999/xlink">
<g id="graph0" class="graph" transform="scale(1 1) rotate(0) translate(4 228.91)">
<title>%3</title>
<polygon fill="white" stroke="transparent" points="-4,4 -4,-228.91 378.55,-228.91 378.55,4 -4,4"/>
<g id="clust1" class="cluster">
<title>cluster21</title>
<path fill="none" stroke="black" d="M130.45,-8C130.45,-8 232.45,-8 232.45,-8 238.45,-8 244.45,-14 244.45,-20 244.45,-20 244.45,-109.95 244.45,-109.95 244.45,-115.95 238.45,-121.95 232.45,-121.95 232.45,-121.95 130.45,-121.95 130.45,-121.95 124.45,-121.95 118.45,-115.95 118.45,-109.95 118.45,-109.95 118.45,-20 118.45,-20 118.45,-14 124.45,-8 130.45,-8"/>
<text text-anchor="middle" x="229.45" y="-15.8" font-family="Times,serif" font-size="14.00">21</text>
</g>
<!-- kernel_ls -->
<g id="node1" class="node">
<title>kernel_ls</title>
<ellipse fill="none" stroke="black" cx="54.45" cy="-187.43" rx="54.39" ry="37.45"/>
<text text-anchor="middle" x="54.45" y="-198.73" font-family="Times,serif" font-size="14.00">kernel_ls</text>
<text text-anchor="middle" x="54.45" y="-183.73" font-family="Times,serif" font-size="14.00">~</text>
<text text-anchor="middle" x="54.45" y="-168.73" font-family="Times,serif" font-size="14.00">Lognormal</text>
</g>
<!-- y -->
<g id="node4" class="node">
<title>y</title>
<ellipse fill="lightgrey" stroke="black" cx="181.45" cy="-76.48" rx="55.31" ry="37.45"/>
<text text-anchor="middle" x="181.45" y="-87.78" font-family="Times,serif" font-size="14.00">y</text>
<text text-anchor="middle" x="181.45" y="-72.78" font-family="Times,serif" font-size="14.00">~</text>
<text text-anchor="middle" x="181.45" y="-57.78" font-family="Times,serif" font-size="14.00">MvNormal</text>
</g>
<!-- kernel_ls&#45;&gt;y -->
<g id="edge1" class="edge">
<title>kernel_ls&#45;&gt;y</title>
<path fill="none" stroke="black" d="M87.81,-157.8C103.88,-144.03 123.28,-127.38 140.26,-112.82"/>
<polygon fill="black" stroke="black" points="142.55,-115.46 147.86,-106.29 137.99,-110.14 142.55,-115.46"/>
</g>
<!-- kernel_std -->
<g id="node2" class="node">
<title>kernel_std</title>
<ellipse fill="none" stroke="black" cx="181.45" cy="-187.43" rx="54.39" ry="37.45"/>
<text text-anchor="middle" x="181.45" y="-198.73" font-family="Times,serif" font-size="14.00">kernel_std</text>
<text text-anchor="middle" x="181.45" y="-183.73" font-family="Times,serif" font-size="14.00">~</text>
<text text-anchor="middle" x="181.45" y="-168.73" font-family="Times,serif" font-size="14.00">Lognormal</text>
</g>
<!-- kernel_std&#45;&gt;y -->
<g id="edge2" class="edge">
<title>kernel_std&#45;&gt;y</title>
<path fill="none" stroke="black" d="M181.45,-149.85C181.45,-141.67 181.45,-132.89 181.45,-124.37"/>
<polygon fill="black" stroke="black" points="184.95,-124.15 181.45,-114.15 177.95,-124.15 184.95,-124.15"/>
</g>
<!-- noise_sigma -->
<g id="node3" class="node">
<title>noise_sigma</title>
<ellipse fill="none" stroke="black" cx="314.45" cy="-187.43" rx="60.21" ry="37.45"/>
<text text-anchor="middle" x="314.45" y="-198.73" font-family="Times,serif" font-size="14.00">noise_sigma</text>
<text text-anchor="middle" x="314.45" y="-183.73" font-family="Times,serif" font-size="14.00">~</text>
<text text-anchor="middle" x="314.45" y="-168.73" font-family="Times,serif" font-size="14.00">Lognormal</text>
</g>
<!-- noise_sigma&#45;&gt;y -->
<g id="edge3" class="edge">
<title>noise_sigma&#45;&gt;y</title>
<path fill="none" stroke="black" d="M278.81,-157.23C261.99,-143.46 241.79,-126.91 224.16,-112.47"/>
<polygon fill="black" stroke="black" points="226.22,-109.63 216.27,-106 221.78,-115.05 226.22,-109.63"/>
</g>
</g>
</svg>
