<?xml version="1.0" encoding="utf-8"?>
<svg xmlns="http://www.w3.org/2000/svg" xmlns:xlink="http://www.w3.org/1999/xlink" width="600" height="400" viewBox="0 0 2400 1600">
<defs>
  <clipPath id="clip880">
    <rect x="0" y="0" width="2400" height="1600"/>
  </clipPath>
</defs>
<path clip-path="url(#clip880)" d="
M0 1600 L2400 1600 L2400 0 L0 0  Z
  " fill="#ffffff" fill-rule="evenodd" fill-opacity="1"/>
<defs>
  <clipPath id="clip881">
    <rect x="480" y="0" width="1681" height="1600"/>
  </clipPath>
</defs>
<path clip-path="url(#clip880)" d="
M205.121 1423.18 L1650.58 1423.18 L1650.58 123.472 L205.121 123.472  Z
  " fill="#ffffff" fill-rule="evenodd" fill-opacity="1"/>
<defs>
  <clipPath id="clip882">
    <rect x="205" y="123" width="1446" height="1301"/>
  </clipPath>
</defs>
<polyline clip-path="url(#clip882)" style="stroke:#000000; stroke-linecap:butt; stroke-linejoin:round; stroke-width:2; stroke-opacity:0.1; fill:none" points="
  533.112,1423.18 533.112,123.472 
  "/>
<polyline clip-path="url(#clip882)" style="stroke:#000000; stroke-linecap:butt; stroke-linejoin:round; stroke-width:2; stroke-opacity:0.1; fill:none" points="
  891.964,1423.18 891.964,123.472 
  "/>
<polyline clip-path="url(#clip882)" style="stroke:#000000; stroke-linecap:butt; stroke-linejoin:round; stroke-width:2; stroke-opacity:0.1; fill:none" points="
  1250.82,1423.18 1250.82,123.472 
  "/>
<polyline clip-path="url(#clip882)" style="stroke:#000000; stroke-linecap:butt; stroke-linejoin:round; stroke-width:2; stroke-opacity:0.1; fill:none" points="
  1609.67,1423.18 1609.67,123.472 
  "/>
<polyline clip-path="url(#clip880)" style="stroke:#000000; stroke-linecap:butt; stroke-linejoin:round; stroke-width:4; stroke-opacity:1; fill:none" points="
  205.121,1423.18 1650.58,1423.18 
  "/>
<polyline clip-path="url(#clip880)" style="stroke:#000000; stroke-linecap:butt; stroke-linejoin:round; stroke-width:4; stroke-opacity:1; fill:none" points="
  533.112,1423.18 533.112,1404.28 
  "/>
<polyline clip-path="url(#clip880)" style="stroke:#000000; stroke-linecap:butt; stroke-linejoin:round; stroke-width:4; stroke-opacity:1; fill:none" points="
  891.964,1423.18 891.964,1404.28 
  "/>
<polyline clip-path="url(#clip880)" style="stroke:#000000; stroke-linecap:butt; stroke-linejoin:round; stroke-width:4; stroke-opacity:1; fill:none" points="
  1250.82,1423.18 1250.82,1404.28 
  "/>
<polyline clip-path="url(#clip880)" style="stroke:#000000; stroke-linecap:butt; stroke-linejoin:round; stroke-width:4; stroke-opacity:1; fill:none" points="
  1609.67,1423.18 1609.67,1404.28 
  "/>
<path clip-path="url(#clip880)" d="M523.389 1449.29 L541.746 1449.29 L541.746 1453.23 L527.672 1453.23 L527.672 1461.7 Q528.69 1461.35 529.709 1461.19 Q530.727 1461 531.746 1461 Q537.533 1461 540.913 1464.18 Q544.292 1467.35 544.292 1472.76 Q544.292 1478.34 540.82 1481.44 Q537.348 1484.52 531.028 1484.52 Q528.852 1484.52 526.584 1484.15 Q524.339 1483.78 521.931 1483.04 L521.931 1478.34 Q524.014 1479.48 526.237 1480.03 Q528.459 1480.59 530.936 1480.59 Q534.94 1480.59 537.278 1478.48 Q539.616 1476.38 539.616 1472.76 Q539.616 1469.15 537.278 1467.05 Q534.94 1464.94 530.936 1464.94 Q529.061 1464.94 527.186 1465.36 Q525.334 1465.77 523.389 1466.65 L523.389 1449.29 Z" fill="#000000" fill-rule="evenodd" fill-opacity="1" /><path clip-path="url(#clip880)" d="M866.651 1479.92 L874.29 1479.92 L874.29 1453.55 L865.98 1455.22 L865.98 1450.96 L874.244 1449.29 L878.92 1449.29 L878.92 1479.92 L886.558 1479.92 L886.558 1483.85 L866.651 1483.85 L866.651 1479.92 Z" fill="#000000" fill-rule="evenodd" fill-opacity="1" /><path clip-path="url(#clip880)" d="M906.003 1452.37 Q902.392 1452.37 900.563 1455.94 Q898.757 1459.48 898.757 1466.61 Q898.757 1473.71 900.563 1477.28 Q902.392 1480.82 906.003 1480.82 Q909.637 1480.82 911.443 1477.28 Q913.271 1473.71 913.271 1466.61 Q913.271 1459.48 911.443 1455.94 Q909.637 1452.37 906.003 1452.37 M906.003 1448.67 Q911.813 1448.67 914.869 1453.27 Q917.947 1457.86 917.947 1466.61 Q917.947 1475.33 914.869 1479.94 Q911.813 1484.52 906.003 1484.52 Q900.193 1484.52 897.114 1479.94 Q894.058 1475.33 894.058 1466.61 Q894.058 1457.86 897.114 1453.27 Q900.193 1448.67 906.003 1448.67 Z" fill="#000000" fill-rule="evenodd" fill-opacity="1" /><path clip-path="url(#clip880)" d="M1226 1479.92 L1233.64 1479.92 L1233.64 1453.55 L1225.33 1455.22 L1225.33 1450.96 L1233.59 1449.29 L1238.27 1449.29 L1238.27 1479.92 L1245.91 1479.92 L1245.91 1483.85 L1226 1483.85 L1226 1479.92 Z" fill="#000000" fill-rule="evenodd" fill-opacity="1" /><path clip-path="url(#clip880)" d="M1255.4 1449.29 L1273.76 1449.29 L1273.76 1453.23 L1259.68 1453.23 L1259.68 1461.7 Q1260.7 1461.35 1261.72 1461.19 Q1262.74 1461 1263.76 1461 Q1269.54 1461 1272.92 1464.18 Q1276.3 1467.35 1276.3 1472.76 Q1276.3 1478.34 1272.83 1481.44 Q1269.36 1484.52 1263.04 1484.52 Q1260.86 1484.52 1258.59 1484.15 Q1256.35 1483.78 1253.94 1483.04 L1253.94 1478.34 Q1256.02 1479.48 1258.25 1480.03 Q1260.47 1480.59 1262.95 1480.59 Q1266.95 1480.59 1269.29 1478.48 Q1271.63 1476.38 1271.63 1472.76 Q1271.63 1469.15 1269.29 1467.05 Q1266.95 1464.94 1262.95 1464.94 Q1261.07 1464.94 1259.2 1465.36 Q1257.34 1465.77 1255.4 1466.65 L1255.4 1449.29 Z" fill="#000000" fill-rule="evenodd" fill-opacity="1" /><path clip-path="url(#clip880)" d="M1588.44 1479.92 L1604.76 1479.92 L1604.76 1483.85 L1582.82 1483.85 L1582.82 1479.92 Q1585.48 1477.16 1590.06 1472.53 Q1594.67 1467.88 1595.85 1466.54 Q1598.09 1464.01 1598.97 1462.28 Q1599.88 1460.52 1599.88 1458.83 Q1599.88 1456.07 1597.93 1454.34 Q1596.01 1452.6 1592.91 1452.6 Q1590.71 1452.6 1588.26 1453.37 Q1585.82 1454.13 1583.05 1455.68 L1583.05 1450.96 Q1585.87 1449.82 1588.32 1449.25 Q1590.78 1448.67 1592.82 1448.67 Q1598.19 1448.67 1601.38 1451.35 Q1604.57 1454.04 1604.57 1458.53 Q1604.57 1460.66 1603.76 1462.58 Q1602.98 1464.48 1600.87 1467.07 Q1600.29 1467.74 1597.19 1470.96 Q1594.09 1474.15 1588.44 1479.92 Z" fill="#000000" fill-rule="evenodd" fill-opacity="1" /><path clip-path="url(#clip880)" d="M1624.57 1452.37 Q1620.96 1452.37 1619.13 1455.94 Q1617.33 1459.48 1617.33 1466.61 Q1617.33 1473.71 1619.13 1477.28 Q1620.96 1480.82 1624.57 1480.82 Q1628.21 1480.82 1630.01 1477.28 Q1631.84 1473.71 1631.84 1466.61 Q1631.84 1459.48 1630.01 1455.94 Q1628.21 1452.37 1624.57 1452.37 M1624.57 1448.67 Q1630.38 1448.67 1633.44 1453.27 Q1636.52 1457.86 1636.52 1466.61 Q1636.52 1475.33 1633.44 1479.94 Q1630.38 1484.52 1624.57 1484.52 Q1618.76 1484.52 1615.69 1479.94 Q1612.63 1475.33 1612.63 1466.61 Q1612.63 1457.86 1615.69 1453.27 Q1618.76 1448.67 1624.57 1448.67 Z" fill="#000000" fill-rule="evenodd" fill-opacity="1" /><path clip-path="url(#clip880)" d="M909.675 1520.52 L916.581 1520.52 L928.39 1538.19 L940.262 1520.52 L947.169 1520.52 L931.891 1543.34 L948.187 1568.04 L941.28 1568.04 L927.912 1547.83 L914.449 1568.04 L907.51 1568.04 L924.475 1542.68 L909.675 1520.52 Z" fill="#000000" fill-rule="evenodd" fill-opacity="1" /><polyline clip-path="url(#clip882)" style="stroke:#000000; stroke-linecap:butt; stroke-linejoin:round; stroke-width:2; stroke-opacity:0.1; fill:none" points="
  205.121,1407.47 1650.58,1407.47 
  "/>
<polyline clip-path="url(#clip882)" style="stroke:#000000; stroke-linecap:butt; stroke-linejoin:round; stroke-width:2; stroke-opacity:0.1; fill:none" points="
  205.121,1095.67 1650.58,1095.67 
  "/>
<polyline clip-path="url(#clip882)" style="stroke:#000000; stroke-linecap:butt; stroke-linejoin:round; stroke-width:2; stroke-opacity:0.1; fill:none" points="
  205.121,783.865 1650.58,783.865 
  "/>
<polyline clip-path="url(#clip882)" style="stroke:#000000; stroke-linecap:butt; stroke-linejoin:round; stroke-width:2; stroke-opacity:0.1; fill:none" points="
  205.121,472.061 1650.58,472.061 
  "/>
<polyline clip-path="url(#clip882)" style="stroke:#000000; stroke-linecap:butt; stroke-linejoin:round; stroke-width:2; stroke-opacity:0.1; fill:none" points="
  205.121,160.256 1650.58,160.256 
  "/>
<polyline clip-path="url(#clip880)" style="stroke:#000000; stroke-linecap:butt; stroke-linejoin:round; stroke-width:4; stroke-opacity:1; fill:none" points="
  205.121,1423.18 205.121,123.472 
  "/>
<polyline clip-path="url(#clip880)" style="stroke:#000000; stroke-linecap:butt; stroke-linejoin:round; stroke-width:4; stroke-opacity:1; fill:none" points="
  205.121,1407.47 217.84,1407.47 
  "/>
<polyline clip-path="url(#clip880)" style="stroke:#000000; stroke-linecap:butt; stroke-linejoin:round; stroke-width:4; stroke-opacity:1; fill:none" points="
  205.121,1095.67 217.84,1095.67 
  "/>
<polyline clip-path="url(#clip880)" style="stroke:#000000; stroke-linecap:butt; stroke-linejoin:round; stroke-width:4; stroke-opacity:1; fill:none" points="
  205.121,783.865 217.84,783.865 
  "/>
<polyline clip-path="url(#clip880)" style="stroke:#000000; stroke-linecap:butt; stroke-linejoin:round; stroke-width:4; stroke-opacity:1; fill:none" points="
  205.121,472.061 217.84,472.061 
  "/>
<polyline clip-path="url(#clip880)" style="stroke:#000000; stroke-linecap:butt; stroke-linejoin:round; stroke-width:4; stroke-opacity:1; fill:none" points="
  205.121,160.256 217.84,160.256 
  "/>
<path clip-path="url(#clip880)" d="M157.177 1393.27 Q153.566 1393.27 151.737 1396.84 Q149.931 1400.38 149.931 1407.51 Q149.931 1414.61 151.737 1418.18 Q153.566 1421.72 157.177 1421.72 Q160.811 1421.72 162.616 1418.18 Q164.445 1414.61 164.445 1407.51 Q164.445 1400.38 162.616 1396.84 Q160.811 1393.27 157.177 1393.27 M157.177 1389.57 Q162.987 1389.57 166.042 1394.17 Q169.121 1398.76 169.121 1407.51 Q169.121 1416.23 166.042 1420.84 Q162.987 1425.42 157.177 1425.42 Q151.366 1425.42 148.288 1420.84 Q145.232 1416.23 145.232 1407.51 Q145.232 1398.76 148.288 1394.17 Q151.366 1389.57 157.177 1389.57 Z" fill="#000000" fill-rule="evenodd" fill-opacity="1" /><path clip-path="url(#clip880)" d="M121.043 1109.01 L137.362 1109.01 L137.362 1112.95 L115.418 1112.95 L115.418 1109.01 Q118.08 1106.26 122.663 1101.63 Q127.269 1096.98 128.45 1095.63 Q130.695 1093.11 131.575 1091.38 Q132.478 1089.62 132.478 1087.93 Q132.478 1085.17 130.533 1083.44 Q128.612 1081.7 125.51 1081.7 Q123.311 1081.7 120.857 1082.46 Q118.427 1083.23 115.649 1084.78 L115.649 1080.06 Q118.473 1078.92 120.927 1078.34 Q123.38 1077.76 125.418 1077.76 Q130.788 1077.76 133.982 1080.45 Q137.177 1083.13 137.177 1087.63 Q137.177 1089.75 136.367 1091.68 Q135.579 1093.57 133.473 1096.17 Q132.894 1096.84 129.792 1100.06 Q126.691 1103.25 121.043 1109.01 Z" fill="#000000" fill-rule="evenodd" fill-opacity="1" /><path clip-path="url(#clip880)" d="M157.177 1081.47 Q153.566 1081.47 151.737 1085.03 Q149.931 1088.57 149.931 1095.7 Q149.931 1102.81 151.737 1106.37 Q153.566 1109.92 157.177 1109.92 Q160.811 1109.92 162.616 1106.37 Q164.445 1102.81 164.445 1095.7 Q164.445 1088.57 162.616 1085.03 Q160.811 1081.47 157.177 1081.47 M157.177 1077.76 Q162.987 1077.76 166.042 1082.37 Q169.121 1086.95 169.121 1095.7 Q169.121 1104.43 166.042 1109.04 Q162.987 1113.62 157.177 1113.62 Q151.366 1113.62 148.288 1109.04 Q145.232 1104.43 145.232 1095.7 Q145.232 1086.95 148.288 1082.37 Q151.366 1077.76 157.177 1077.76 Z" fill="#000000" fill-rule="evenodd" fill-opacity="1" /><path clip-path="url(#clip880)" d="M129.862 770.659 L118.056 789.108 L129.862 789.108 L129.862 770.659 M128.635 766.585 L134.515 766.585 L134.515 789.108 L139.445 789.108 L139.445 792.997 L134.515 792.997 L134.515 801.145 L129.862 801.145 L129.862 792.997 L114.26 792.997 L114.26 788.483 L128.635 766.585 Z" fill="#000000" fill-rule="evenodd" fill-opacity="1" /><path clip-path="url(#clip880)" d="M157.177 769.663 Q153.566 769.663 151.737 773.228 Q149.931 776.77 149.931 783.899 Q149.931 791.006 151.737 794.571 Q153.566 798.112 157.177 798.112 Q160.811 798.112 162.616 794.571 Q164.445 791.006 164.445 783.899 Q164.445 776.77 162.616 773.228 Q160.811 769.663 157.177 769.663 M157.177 765.96 Q162.987 765.96 166.042 770.566 Q169.121 775.15 169.121 783.899 Q169.121 792.626 166.042 797.233 Q162.987 801.816 157.177 801.816 Q151.366 801.816 148.288 797.233 Q145.232 792.626 145.232 783.899 Q145.232 775.15 148.288 770.566 Q151.366 765.96 157.177 765.96 Z" fill="#000000" fill-rule="evenodd" fill-opacity="1" /><path clip-path="url(#clip880)" d="M127.593 470.197 Q124.445 470.197 122.593 472.35 Q120.765 474.503 120.765 478.253 Q120.765 481.979 122.593 484.155 Q124.445 486.308 127.593 486.308 Q130.742 486.308 132.57 484.155 Q134.422 481.979 134.422 478.253 Q134.422 474.503 132.57 472.35 Q130.742 470.197 127.593 470.197 M136.876 455.544 L136.876 459.804 Q135.117 458.97 133.311 458.531 Q131.529 458.091 129.769 458.091 Q125.14 458.091 122.686 461.216 Q120.255 464.341 119.908 470.66 Q121.274 468.646 123.334 467.581 Q125.394 466.493 127.871 466.493 Q133.08 466.493 136.089 469.665 Q139.121 472.813 139.121 478.253 Q139.121 483.577 135.973 486.794 Q132.825 490.012 127.593 490.012 Q121.598 490.012 118.427 485.429 Q115.256 480.822 115.256 472.095 Q115.256 463.901 119.144 459.04 Q123.033 454.156 129.584 454.156 Q131.343 454.156 133.126 454.503 Q134.931 454.85 136.876 455.544 Z" fill="#000000" fill-rule="evenodd" fill-opacity="1" /><path clip-path="url(#clip880)" d="M157.177 457.859 Q153.566 457.859 151.737 461.424 Q149.931 464.966 149.931 472.095 Q149.931 479.202 151.737 482.766 Q153.566 486.308 157.177 486.308 Q160.811 486.308 162.616 482.766 Q164.445 479.202 164.445 472.095 Q164.445 464.966 162.616 461.424 Q160.811 457.859 157.177 457.859 M157.177 454.156 Q162.987 454.156 166.042 458.762 Q169.121 463.345 169.121 472.095 Q169.121 480.822 166.042 485.429 Q162.987 490.012 157.177 490.012 Q151.366 490.012 148.288 485.429 Q145.232 480.822 145.232 472.095 Q145.232 463.345 148.288 458.762 Q151.366 454.156 157.177 454.156 Z" fill="#000000" fill-rule="evenodd" fill-opacity="1" /><path clip-path="url(#clip880)" d="M127.015 161.124 Q123.681 161.124 121.76 162.907 Q119.862 164.689 119.862 167.814 Q119.862 170.939 121.76 172.722 Q123.681 174.504 127.015 174.504 Q130.348 174.504 132.269 172.722 Q134.191 170.916 134.191 167.814 Q134.191 164.689 132.269 162.907 Q130.371 161.124 127.015 161.124 M122.339 159.134 Q119.33 158.393 117.64 156.333 Q115.973 154.273 115.973 151.31 Q115.973 147.166 118.913 144.759 Q121.876 142.351 127.015 142.351 Q132.177 142.351 135.117 144.759 Q138.056 147.166 138.056 151.31 Q138.056 154.273 136.367 156.333 Q134.7 158.393 131.714 159.134 Q135.093 159.921 136.968 162.212 Q138.867 164.504 138.867 167.814 Q138.867 172.837 135.788 175.522 Q132.732 178.208 127.015 178.208 Q121.297 178.208 118.218 175.522 Q115.163 172.837 115.163 167.814 Q115.163 164.504 117.061 162.212 Q118.959 159.921 122.339 159.134 M120.626 151.749 Q120.626 154.435 122.293 155.939 Q123.982 157.444 127.015 157.444 Q130.024 157.444 131.714 155.939 Q133.427 154.435 133.427 151.749 Q133.427 149.064 131.714 147.56 Q130.024 146.055 127.015 146.055 Q123.982 146.055 122.293 147.56 Q120.626 149.064 120.626 151.749 Z" fill="#000000" fill-rule="evenodd" fill-opacity="1" /><path clip-path="url(#clip880)" d="M157.177 146.055 Q153.566 146.055 151.737 149.62 Q149.931 153.161 149.931 160.291 Q149.931 167.397 151.737 170.962 Q153.566 174.504 157.177 174.504 Q160.811 174.504 162.616 170.962 Q164.445 167.397 164.445 160.291 Q164.445 153.161 162.616 149.62 Q160.811 146.055 157.177 146.055 M157.177 142.351 Q162.987 142.351 166.042 146.958 Q169.121 151.541 169.121 160.291 Q169.121 169.018 166.042 173.624 Q162.987 178.208 157.177 178.208 Q151.366 178.208 148.288 173.624 Q145.232 169.018 145.232 160.291 Q145.232 151.541 148.288 146.958 Q151.366 142.351 157.177 142.351 Z" fill="#000000" fill-rule="evenodd" fill-opacity="1" /><path clip-path="url(#clip880)" d="M16.4842 793.362 L16.4842 786.455 L36.0269 773.278 L16.4842 760.197 L16.4842 753.29 L41.3741 770.095 L64.0042 770.095 L64.0042 776.557 L41.3741 776.557 L16.4842 793.362 Z" fill="#000000" fill-rule="evenodd" fill-opacity="1" /><path clip-path="url(#clip880)" d="M778.654 18.8205 L778.654 65.8515 L788.538 65.8515 Q801.055 65.8515 806.848 60.1802 Q812.682 54.509 812.682 42.2752 Q812.682 30.1225 806.848 24.4918 Q801.055 18.8205 788.538 18.8205 L778.654 18.8205 M770.471 12.096 L787.282 12.096 Q804.863 12.096 813.087 19.4281 Q821.31 26.7198 821.31 42.2752 Q821.31 57.9117 813.046 65.2439 Q804.782 72.576 787.282 72.576 L770.471 72.576 L770.471 12.096 Z" fill="#000000" fill-rule="evenodd" fill-opacity="1" /><path clip-path="url(#clip880)" d="M854.649 49.7694 Q845.615 49.7694 842.132 51.8354 Q838.648 53.9013 838.648 58.8839 Q838.648 62.8538 841.24 65.2034 Q843.873 67.5124 848.37 67.5124 Q854.568 67.5124 858.295 63.1374 Q862.062 58.7219 862.062 51.4303 L862.062 49.7694 L854.649 49.7694 M869.516 46.6907 L869.516 72.576 L862.062 72.576 L862.062 65.6895 Q859.51 69.8214 855.702 71.8063 Q851.894 73.7508 846.385 73.7508 Q839.417 73.7508 835.286 69.8619 Q831.194 65.9325 831.194 59.3701 Q831.194 51.7138 836.298 47.825 Q841.443 43.9361 851.611 43.9361 L862.062 43.9361 L862.062 43.2069 Q862.062 38.0623 858.659 35.2672 Q855.297 32.4315 849.18 32.4315 Q845.291 32.4315 841.605 33.3632 Q837.919 34.295 834.516 36.1584 L834.516 29.2718 Q838.607 27.692 842.456 26.9223 Q846.304 26.1121 849.95 26.1121 Q859.794 26.1121 864.655 31.2163 Q869.516 36.3204 869.516 46.6907 Z" fill="#000000" fill-rule="evenodd" fill-opacity="1" /><path clip-path="url(#clip880)" d="M892.241 14.324 L892.241 27.2059 L907.594 27.2059 L907.594 32.9987 L892.241 32.9987 L892.241 57.6282 Q892.241 63.1779 893.74 64.7578 Q895.279 66.3376 899.938 66.3376 L907.594 66.3376 L907.594 72.576 L899.938 72.576 Q891.31 72.576 888.028 69.3758 Q884.747 66.1351 884.747 57.6282 L884.747 32.9987 L879.278 32.9987 L879.278 27.2059 L884.747 27.2059 L884.747 14.324 L892.241 14.324 Z" fill="#000000" fill-rule="evenodd" fill-opacity="1" /><path clip-path="url(#clip880)" d="M938.016 49.7694 Q928.983 49.7694 925.499 51.8354 Q922.015 53.9013 922.015 58.8839 Q922.015 62.8538 924.608 65.2034 Q927.241 67.5124 931.738 67.5124 Q937.935 67.5124 941.662 63.1374 Q945.43 58.7219 945.43 51.4303 L945.43 49.7694 L938.016 49.7694 M952.883 46.6907 L952.883 72.576 L945.43 72.576 L945.43 65.6895 Q942.878 69.8214 939.07 71.8063 Q935.262 73.7508 929.753 73.7508 Q922.785 73.7508 918.653 69.8619 Q914.562 65.9325 914.562 59.3701 Q914.562 51.7138 919.666 47.825 Q924.811 43.9361 934.978 43.9361 L945.43 43.9361 L945.43 43.2069 Q945.43 38.0623 942.027 35.2672 Q938.665 32.4315 932.548 32.4315 Q928.659 32.4315 924.973 33.3632 Q921.286 34.295 917.884 36.1584 L917.884 29.2718 Q921.975 27.692 925.823 26.9223 Q929.672 26.1121 933.317 26.1121 Q943.161 26.1121 948.022 31.2163 Q952.883 36.3204 952.883 46.6907 Z" fill="#000000" fill-rule="evenodd" fill-opacity="1" /><path clip-path="url(#clip880)" d="M997.16 28.5427 L997.16 35.5912 Q994 33.9709 990.597 33.1607 Q987.194 32.3505 983.549 32.3505 Q977.999 32.3505 975.204 34.0519 Q972.449 35.7533 972.449 39.156 Q972.449 41.7486 974.434 43.2475 Q976.419 44.7058 982.414 46.0426 L984.966 46.6097 Q992.906 48.3111 996.228 51.4303 Q999.59 54.509 999.59 60.0587 Q999.59 66.3781 994.567 70.0644 Q989.585 73.7508 980.835 73.7508 Q977.189 73.7508 973.219 73.0216 Q969.289 72.3329 964.915 70.9151 L964.915 63.2184 Q969.046 65.3654 973.057 66.4591 Q977.067 67.5124 980.997 67.5124 Q986.263 67.5124 989.098 65.73 Q991.934 63.9071 991.934 60.6258 Q991.934 57.5877 989.868 55.9673 Q987.843 54.3469 980.916 52.8481 L978.323 52.2405 Q971.396 50.7821 968.317 47.7845 Q965.239 44.7463 965.239 39.4801 Q965.239 33.0797 969.776 29.5959 Q974.313 26.1121 982.657 26.1121 Q986.789 26.1121 990.435 26.7198 Q994.081 27.3274 997.16 28.5427 Z" fill="#000000" fill-rule="evenodd" fill-opacity="1" /><path clip-path="url(#clip880)" d="M1050.27 48.0275 L1050.27 51.6733 L1016 51.6733 Q1016.48 59.3701 1020.61 63.421 Q1024.79 67.4314 1032.2 67.4314 Q1036.49 67.4314 1040.5 66.3781 Q1044.56 65.3249 1048.53 63.2184 L1048.53 70.267 Q1044.51 71.9684 1040.3 72.8596 Q1036.09 73.7508 1031.75 73.7508 Q1020.9 73.7508 1014.54 67.4314 Q1008.22 61.1119 1008.22 50.3365 Q1008.22 39.1965 1014.21 32.6746 Q1020.25 26.1121 1030.46 26.1121 Q1039.61 26.1121 1044.92 32.0264 Q1050.27 37.9003 1050.27 48.0275 M1042.81 45.84 Q1042.73 39.7232 1039.37 36.0774 Q1036.05 32.4315 1030.54 32.4315 Q1024.3 32.4315 1020.53 35.9558 Q1016.81 39.4801 1016.24 45.8805 L1042.81 45.84 Z" fill="#000000" fill-rule="evenodd" fill-opacity="1" /><path clip-path="url(#clip880)" d="M1069.87 14.324 L1069.87 27.2059 L1085.23 27.2059 L1085.23 32.9987 L1069.87 32.9987 L1069.87 57.6282 Q1069.87 63.1779 1071.37 64.7578 Q1072.91 66.3376 1077.57 66.3376 L1085.23 66.3376 L1085.23 72.576 L1077.57 72.576 Q1068.94 72.576 1065.66 69.3758 Q1062.38 66.1351 1062.38 57.6282 L1062.38 32.9987 L1056.91 32.9987 L1056.91 27.2059 L1062.38 27.2059 L1062.38 14.324 L1069.87 14.324 Z" fill="#000000" fill-rule="evenodd" fill-opacity="1" /><circle clip-path="url(#clip882)" cx="246.03" cy="1386.4" r="14" fill="#009af9" fill-rule="evenodd" fill-opacity="1" stroke="#000000" stroke-opacity="1" stroke-width="3.2"/>
<circle clip-path="url(#clip882)" cx="317.8" cy="1243.96" r="14" fill="#009af9" fill-rule="evenodd" fill-opacity="1" stroke="#000000" stroke-opacity="1" stroke-width="3.2"/>
<circle clip-path="url(#clip882)" cx="389.571" cy="1265.22" r="14" fill="#009af9" fill-rule="evenodd" fill-opacity="1" stroke="#000000" stroke-opacity="1" stroke-width="3.2"/>
<circle clip-path="url(#clip882)" cx="461.341" cy="1155.62" r="14" fill="#009af9" fill-rule="evenodd" fill-opacity="1" stroke="#000000" stroke-opacity="1" stroke-width="3.2"/>
<circle clip-path="url(#clip882)" cx="533.112" cy="1069.38" r="14" fill="#009af9" fill-rule="evenodd" fill-opacity="1" stroke="#000000" stroke-opacity="1" stroke-width="3.2"/>
<circle clip-path="url(#clip882)" cx="604.882" cy="999.489" r="14" fill="#009af9" fill-rule="evenodd" fill-opacity="1" stroke="#000000" stroke-opacity="1" stroke-width="3.2"/>
<circle clip-path="url(#clip882)" cx="676.652" cy="993.023" r="14" fill="#009af9" fill-rule="evenodd" fill-opacity="1" stroke="#000000" stroke-opacity="1" stroke-width="3.2"/>
<circle clip-path="url(#clip882)" cx="748.423" cy="867.927" r="14" fill="#009af9" fill-rule="evenodd" fill-opacity="1" stroke="#000000" stroke-opacity="1" stroke-width="3.2"/>
<circle clip-path="url(#clip882)" cx="820.193" cy="875.191" r="14" fill="#009af9" fill-rule="evenodd" fill-opacity="1" stroke="#000000" stroke-opacity="1" stroke-width="3.2"/>
<circle clip-path="url(#clip882)" cx="891.964" cy="746.254" r="14" fill="#009af9" fill-rule="evenodd" fill-opacity="1" stroke="#000000" stroke-opacity="1" stroke-width="3.2"/>
<circle clip-path="url(#clip882)" cx="963.734" cy="761.336" r="14" fill="#009af9" fill-rule="evenodd" fill-opacity="1" stroke="#000000" stroke-opacity="1" stroke-width="3.2"/>
<circle clip-path="url(#clip882)" cx="1035.5" cy="675.035" r="14" fill="#009af9" fill-rule="evenodd" fill-opacity="1" stroke="#000000" stroke-opacity="1" stroke-width="3.2"/>
<circle clip-path="url(#clip882)" cx="1107.27" cy="640.618" r="14" fill="#009af9" fill-rule="evenodd" fill-opacity="1" stroke="#000000" stroke-opacity="1" stroke-width="3.2"/>
<circle clip-path="url(#clip882)" cx="1179.05" cy="509.971" r="14" fill="#009af9" fill-rule="evenodd" fill-opacity="1" stroke="#000000" stroke-opacity="1" stroke-width="3.2"/>
<circle clip-path="url(#clip882)" cx="1250.82" cy="485.665" r="14" fill="#009af9" fill-rule="evenodd" fill-opacity="1" stroke="#000000" stroke-opacity="1" stroke-width="3.2"/>
<circle clip-path="url(#clip882)" cx="1322.59" cy="465.461" r="14" fill="#009af9" fill-rule="evenodd" fill-opacity="1" stroke="#000000" stroke-opacity="1" stroke-width="3.2"/>
<circle clip-path="url(#clip882)" cx="1394.36" cy="407.347" r="14" fill="#009af9" fill-rule="evenodd" fill-opacity="1" stroke="#000000" stroke-opacity="1" stroke-width="3.2"/>
<circle clip-path="url(#clip882)" cx="1466.13" cy="313.755" r="14" fill="#009af9" fill-rule="evenodd" fill-opacity="1" stroke="#000000" stroke-opacity="1" stroke-width="3.2"/>
<circle clip-path="url(#clip882)" cx="1537.9" cy="227.458" r="14" fill="#009af9" fill-rule="evenodd" fill-opacity="1" stroke="#000000" stroke-opacity="1" stroke-width="3.2"/>
<circle clip-path="url(#clip882)" cx="1609.67" cy="208.422" r="14" fill="#009af9" fill-rule="evenodd" fill-opacity="1" stroke="#000000" stroke-opacity="1" stroke-width="3.2"/>
<polyline clip-path="url(#clip882)" style="stroke:#e26f46; stroke-linecap:butt; stroke-linejoin:round; stroke-width:8; stroke-opacity:1; fill:none" points="
  246.03,1345.11 317.8,1282.75 389.571,1220.39 461.341,1158.03 533.112,1095.67 604.882,1033.31 676.652,970.947 748.423,908.586 820.193,846.226 891.964,783.865 
  963.734,721.504 1035.5,659.143 1107.27,596.782 1179.05,534.421 1250.82,472.061 1322.59,409.7 1394.36,347.339 1466.13,284.978 1537.9,222.617 1609.67,160.256 
  
  "/>
<path clip-path="url(#clip880)" d="
M1722.16 322.316 L2352.76 322.316 L2352.76 166.796 L1722.16 166.796  Z
  " fill="#ffffff" fill-rule="evenodd" fill-opacity="1"/>
<polyline clip-path="url(#clip880)" style="stroke:#000000; stroke-linecap:butt; stroke-linejoin:round; stroke-width:4; stroke-opacity:1; fill:none" points="
  1722.16,322.316 2352.76,322.316 2352.76,166.796 1722.16,166.796 1722.16,322.316 
  "/>
<circle clip-path="url(#clip880)" cx="1817.61" cy="218.636" r="23" fill="#009af9" fill-rule="evenodd" fill-opacity="1" stroke="#000000" stroke-opacity="1" stroke-width="5.12"/>
<path clip-path="url(#clip880)" d="M1913.07 201.356 L1919.36 201.356 L1934.69 230.268 L1934.69 201.356 L1939.22 201.356 L1939.22 235.916 L1932.93 235.916 L1917.6 207.004 L1917.6 235.916 L1913.07 235.916 L1913.07 201.356 Z" fill="#000000" fill-rule="evenodd" fill-opacity="1" /><path clip-path="url(#clip880)" d="M1958.39 212.976 Q1954.96 212.976 1952.97 215.661 Q1950.98 218.323 1950.98 222.976 Q1950.98 227.629 1952.95 230.314 Q1954.94 232.976 1958.39 232.976 Q1961.79 232.976 1963.78 230.291 Q1965.77 227.606 1965.77 222.976 Q1965.77 218.37 1963.78 215.684 Q1961.79 212.976 1958.39 212.976 M1958.39 209.365 Q1963.94 209.365 1967.12 212.976 Q1970.29 216.587 1970.29 222.976 Q1970.29 229.342 1967.12 232.976 Q1963.94 236.587 1958.39 236.587 Q1952.81 236.587 1949.64 232.976 Q1946.49 229.342 1946.49 222.976 Q1946.49 216.587 1949.64 212.976 Q1952.81 209.365 1958.39 209.365 Z" fill="#000000" fill-rule="evenodd" fill-opacity="1" /><path clip-path="url(#clip880)" d="M1977.35 209.99 L1981.61 209.99 L1981.61 235.916 L1977.35 235.916 L1977.35 209.99 M1977.35 199.897 L1981.61 199.897 L1981.61 205.291 L1977.35 205.291 L1977.35 199.897 Z" fill="#000000" fill-rule="evenodd" fill-opacity="1" /><path clip-path="url(#clip880)" d="M2007.05 210.754 L2007.05 214.782 Q2005.24 213.856 2003.3 213.393 Q2001.35 212.93 1999.27 212.93 Q1996.1 212.93 1994.5 213.902 Q1992.93 214.874 1992.93 216.819 Q1992.93 218.3 1994.06 219.157 Q1995.19 219.99 1998.62 220.754 L2000.08 221.078 Q2004.62 222.05 2006.51 223.832 Q2008.44 225.592 2008.44 228.763 Q2008.44 232.374 2005.56 234.481 Q2002.72 236.587 1997.72 236.587 Q1995.63 236.587 1993.37 236.17 Q1991.12 235.777 1988.62 234.967 L1988.62 230.569 Q1990.98 231.795 1993.27 232.42 Q1995.56 233.022 1997.81 233.022 Q2000.82 233.022 2002.44 232.004 Q2004.06 230.962 2004.06 229.087 Q2004.06 227.351 2002.88 226.425 Q2001.72 225.499 1997.76 224.643 L1996.28 224.295 Q1992.32 223.462 1990.56 221.749 Q1988.81 220.013 1988.81 217.004 Q1988.81 213.346 1991.4 211.356 Q1993.99 209.365 1998.76 209.365 Q2001.12 209.365 2003.2 209.712 Q2005.29 210.059 2007.05 210.754 Z" fill="#000000" fill-rule="evenodd" fill-opacity="1" /><path clip-path="url(#clip880)" d="M2026 238.323 Q2024.2 242.953 2022.49 244.365 Q2020.77 245.777 2017.9 245.777 L2014.5 245.777 L2014.5 242.212 L2017 242.212 Q2018.76 242.212 2019.73 241.379 Q2020.7 240.545 2021.88 237.443 L2022.65 235.499 L2012.16 209.99 L2016.68 209.99 L2024.78 230.268 L2032.88 209.99 L2037.39 209.99 L2026 238.323 Z" fill="#000000" fill-rule="evenodd" fill-opacity="1" /><path clip-path="url(#clip880)" d="M2075.4 213.925 L2075.4 199.897 L2079.66 199.897 L2079.66 235.916 L2075.4 235.916 L2075.4 232.027 Q2074.06 234.342 2072 235.476 Q2069.96 236.587 2067.09 236.587 Q2062.39 236.587 2059.43 232.837 Q2056.49 229.087 2056.49 222.976 Q2056.49 216.865 2059.43 213.115 Q2062.39 209.365 2067.09 209.365 Q2069.96 209.365 2072 210.499 Q2074.06 211.61 2075.4 213.925 M2060.89 222.976 Q2060.89 227.675 2062.81 230.36 Q2064.75 233.022 2068.13 233.022 Q2071.51 233.022 2073.46 230.36 Q2075.4 227.675 2075.4 222.976 Q2075.4 218.277 2073.46 215.615 Q2071.51 212.93 2068.13 212.93 Q2064.75 212.93 2062.81 215.615 Q2060.89 218.277 2060.89 222.976 Z" fill="#000000" fill-rule="evenodd" fill-opacity="1" /><path clip-path="url(#clip880)" d="M2100.22 222.883 Q2095.05 222.883 2093.06 224.064 Q2091.07 225.244 2091.07 228.092 Q2091.07 230.36 2092.55 231.703 Q2094.06 233.022 2096.63 233.022 Q2100.17 233.022 2102.3 230.522 Q2104.45 227.999 2104.45 223.832 L2104.45 222.883 L2100.22 222.883 M2108.71 221.124 L2108.71 235.916 L2104.45 235.916 L2104.45 231.981 Q2102.99 234.342 2100.82 235.476 Q2098.64 236.587 2095.49 236.587 Q2091.51 236.587 2089.15 234.365 Q2086.81 232.119 2086.81 228.369 Q2086.81 223.994 2089.73 221.772 Q2092.67 219.55 2098.48 219.55 L2104.45 219.55 L2104.45 219.133 Q2104.45 216.194 2102.51 214.596 Q2100.59 212.976 2097.09 212.976 Q2094.87 212.976 2092.76 213.508 Q2090.66 214.041 2088.71 215.106 L2088.71 211.17 Q2091.05 210.268 2093.25 209.828 Q2095.45 209.365 2097.53 209.365 Q2103.16 209.365 2105.93 212.282 Q2108.71 215.198 2108.71 221.124 Z" fill="#000000" fill-rule="evenodd" fill-opacity="1" /><path clip-path="url(#clip880)" d="M2121.7 202.629 L2121.7 209.99 L2130.47 209.99 L2130.47 213.3 L2121.7 213.3 L2121.7 227.374 Q2121.7 230.545 2122.55 231.448 Q2123.43 232.351 2126.1 232.351 L2130.47 232.351 L2130.47 235.916 L2126.1 235.916 Q2121.17 235.916 2119.29 234.087 Q2117.42 232.235 2117.42 227.374 L2117.42 213.3 L2114.29 213.3 L2114.29 209.99 L2117.42 209.99 L2117.42 202.629 L2121.7 202.629 Z" fill="#000000" fill-rule="evenodd" fill-opacity="1" /><path clip-path="url(#clip880)" d="M2147.86 222.883 Q2142.69 222.883 2140.7 224.064 Q2138.71 225.244 2138.71 228.092 Q2138.71 230.36 2140.19 231.703 Q2141.7 233.022 2144.27 233.022 Q2147.81 233.022 2149.94 230.522 Q2152.09 227.999 2152.09 223.832 L2152.09 222.883 L2147.86 222.883 M2156.35 221.124 L2156.35 235.916 L2152.09 235.916 L2152.09 231.981 Q2150.63 234.342 2148.46 235.476 Q2146.28 236.587 2143.13 236.587 Q2139.15 236.587 2136.79 234.365 Q2134.45 232.119 2134.45 228.369 Q2134.45 223.994 2137.37 221.772 Q2140.31 219.55 2146.12 219.55 L2152.09 219.55 L2152.09 219.133 Q2152.09 216.194 2150.15 214.596 Q2148.23 212.976 2144.73 212.976 Q2142.51 212.976 2140.4 213.508 Q2138.3 214.041 2136.35 215.106 L2136.35 211.17 Q2138.69 210.268 2140.89 209.828 Q2143.09 209.365 2145.17 209.365 Q2150.8 209.365 2153.57 212.282 Q2156.35 215.198 2156.35 221.124 Z" fill="#000000" fill-rule="evenodd" fill-opacity="1" /><path clip-path="url(#clip880)" d="M2181.65 210.754 L2181.65 214.782 Q2179.85 213.856 2177.9 213.393 Q2175.96 212.93 2173.87 212.93 Q2170.7 212.93 2169.11 213.902 Q2167.53 214.874 2167.53 216.819 Q2167.53 218.3 2168.67 219.157 Q2169.8 219.99 2173.23 220.754 L2174.68 221.078 Q2179.22 222.05 2181.12 223.832 Q2183.04 225.592 2183.04 228.763 Q2183.04 232.374 2180.17 234.481 Q2177.32 236.587 2172.32 236.587 Q2170.24 236.587 2167.97 236.17 Q2165.73 235.777 2163.23 234.967 L2163.23 230.569 Q2165.59 231.795 2167.88 232.42 Q2170.17 233.022 2172.42 233.022 Q2175.42 233.022 2177.05 232.004 Q2178.67 230.962 2178.67 229.087 Q2178.67 227.351 2177.49 226.425 Q2176.33 225.499 2172.37 224.643 L2170.89 224.295 Q2166.93 223.462 2165.17 221.749 Q2163.41 220.013 2163.41 217.004 Q2163.41 213.346 2166 211.356 Q2168.6 209.365 2173.36 209.365 Q2175.73 209.365 2177.81 209.712 Q2179.89 210.059 2181.65 210.754 Z" fill="#000000" fill-rule="evenodd" fill-opacity="1" /><path clip-path="url(#clip880)" d="M2212 221.888 L2212 223.971 L2192.42 223.971 Q2192.69 228.369 2195.05 230.684 Q2197.44 232.976 2201.67 232.976 Q2204.13 232.976 2206.42 232.374 Q2208.73 231.772 2211 230.569 L2211 234.596 Q2208.71 235.568 2206.3 236.078 Q2203.9 236.587 2201.42 236.587 Q2195.22 236.587 2191.58 232.976 Q2187.97 229.365 2187.97 223.207 Q2187.97 216.842 2191.4 213.115 Q2194.85 209.365 2200.68 209.365 Q2205.91 209.365 2208.94 212.745 Q2212 216.101 2212 221.888 M2207.74 220.638 Q2207.69 217.143 2205.77 215.059 Q2203.87 212.976 2200.73 212.976 Q2197.16 212.976 2195.01 214.99 Q2192.88 217.004 2192.55 220.661 L2207.74 220.638 Z" fill="#000000" fill-rule="evenodd" fill-opacity="1" /><path clip-path="url(#clip880)" d="M2223.2 202.629 L2223.2 209.99 L2231.98 209.99 L2231.98 213.3 L2223.2 213.3 L2223.2 227.374 Q2223.2 230.545 2224.06 231.448 Q2224.94 232.351 2227.6 232.351 L2231.98 232.351 L2231.98 235.916 L2227.6 235.916 Q2222.67 235.916 2220.8 234.087 Q2218.92 232.235 2218.92 227.374 L2218.92 213.3 L2215.8 213.3 L2215.8 209.99 L2218.92 209.99 L2218.92 202.629 L2223.2 202.629 Z" fill="#000000" fill-rule="evenodd" fill-opacity="1" /><polyline clip-path="url(#clip880)" style="stroke:#e26f46; stroke-linecap:butt; stroke-linejoin:round; stroke-width:4; stroke-opacity:1; fill:none" points="
  1746.03,270.476 1889.2,270.476 
  "/>
<path clip-path="url(#clip880)" d="M1913.07 253.196 L1942.3 253.196 L1942.3 257.131 L1930.03 257.131 L1930.03 287.756 L1925.33 287.756 L1925.33 257.131 L1913.07 257.131 L1913.07 253.196 Z" fill="#000000" fill-rule="evenodd" fill-opacity="1" /><path clip-path="url(#clip880)" d="M1954.69 265.811 Q1953.97 265.395 1953.11 265.21 Q1952.28 265.001 1951.26 265.001 Q1947.65 265.001 1945.7 267.362 Q1943.78 269.7 1943.78 274.098 L1943.78 287.756 L1939.5 287.756 L1939.5 261.83 L1943.78 261.83 L1943.78 265.858 Q1945.13 263.497 1947.28 262.362 Q1949.43 261.205 1952.51 261.205 Q1952.95 261.205 1953.48 261.274 Q1954.01 261.321 1954.66 261.436 L1954.69 265.811 Z" fill="#000000" fill-rule="evenodd" fill-opacity="1" /><path clip-path="url(#clip880)" d="M1958.71 277.524 L1958.71 261.83 L1962.97 261.83 L1962.97 277.362 Q1962.97 281.043 1964.41 282.895 Q1965.84 284.723 1968.71 284.723 Q1972.16 284.723 1974.15 282.524 Q1976.17 280.325 1976.17 276.529 L1976.17 261.83 L1980.43 261.83 L1980.43 287.756 L1976.17 287.756 L1976.17 283.774 Q1974.62 286.135 1972.56 287.293 Q1970.52 288.427 1967.81 288.427 Q1963.34 288.427 1961.03 285.649 Q1958.71 282.871 1958.71 277.524 M1969.43 261.205 L1969.43 261.205 Z" fill="#000000" fill-rule="evenodd" fill-opacity="1" /><path clip-path="url(#clip880)" d="M2011.37 273.728 L2011.37 275.811 L1991.79 275.811 Q1992.07 280.209 1994.43 282.524 Q1996.81 284.816 2001.05 284.816 Q2003.5 284.816 2005.8 284.214 Q2008.11 283.612 2010.38 282.409 L2010.38 286.436 Q2008.09 287.408 2005.68 287.918 Q2003.27 288.427 2000.8 288.427 Q1994.59 288.427 1990.96 284.816 Q1987.35 281.205 1987.35 275.047 Q1987.35 268.682 1990.77 264.955 Q1994.22 261.205 2000.06 261.205 Q2005.29 261.205 2008.32 264.585 Q2011.37 267.941 2011.37 273.728 M2007.12 272.478 Q2007.07 268.983 2005.15 266.899 Q2003.25 264.816 2000.1 264.816 Q1996.54 264.816 1994.38 266.83 Q1992.25 268.844 1991.93 272.501 L2007.12 272.478 Z" fill="#000000" fill-rule="evenodd" fill-opacity="1" /><path clip-path="url(#clip880)" d="M2048.46 265.811 Q2047.74 265.395 2046.88 265.21 Q2046.05 265.001 2045.03 265.001 Q2041.42 265.001 2039.48 267.362 Q2037.56 269.7 2037.56 274.098 L2037.56 287.756 L2033.27 287.756 L2033.27 261.83 L2037.56 261.83 L2037.56 265.858 Q2038.9 263.497 2041.05 262.362 Q2043.2 261.205 2046.28 261.205 Q2046.72 261.205 2047.25 261.274 Q2047.79 261.321 2048.43 261.436 L2048.46 265.811 Z" fill="#000000" fill-rule="evenodd" fill-opacity="1" /><path clip-path="url(#clip880)" d="M2074.06 273.728 L2074.06 275.811 L2054.48 275.811 Q2054.75 280.209 2057.12 282.524 Q2059.5 284.816 2063.74 284.816 Q2066.19 284.816 2068.48 284.214 Q2070.8 283.612 2073.06 282.409 L2073.06 286.436 Q2070.77 287.408 2068.37 287.918 Q2065.96 288.427 2063.48 288.427 Q2057.28 288.427 2053.64 284.816 Q2050.03 281.205 2050.03 275.047 Q2050.03 268.682 2053.46 264.955 Q2056.91 261.205 2062.74 261.205 Q2067.97 261.205 2071 264.585 Q2074.06 267.941 2074.06 273.728 M2069.8 272.478 Q2069.75 268.983 2067.83 266.899 Q2065.93 264.816 2062.79 264.816 Q2059.22 264.816 2057.07 266.83 Q2054.94 268.844 2054.62 272.501 L2069.8 272.478 Z" fill="#000000" fill-rule="evenodd" fill-opacity="1" /><path clip-path="url(#clip880)" d="M2081.05 251.737 L2085.31 251.737 L2085.31 287.756 L2081.05 287.756 L2081.05 251.737 Z" fill="#000000" fill-rule="evenodd" fill-opacity="1" /><path clip-path="url(#clip880)" d="M2106 274.723 Q2100.84 274.723 2098.85 275.904 Q2096.86 277.084 2096.86 279.932 Q2096.86 282.2 2098.34 283.543 Q2099.85 284.862 2102.42 284.862 Q2105.96 284.862 2108.09 282.362 Q2110.24 279.839 2110.24 275.672 L2110.24 274.723 L2106 274.723 M2114.5 272.964 L2114.5 287.756 L2110.24 287.756 L2110.24 283.821 Q2108.78 286.182 2106.61 287.316 Q2104.43 288.427 2101.28 288.427 Q2097.3 288.427 2094.94 286.205 Q2092.6 283.959 2092.6 280.209 Q2092.6 275.834 2095.52 273.612 Q2098.46 271.39 2104.27 271.39 L2110.24 271.39 L2110.24 270.973 Q2110.24 268.034 2108.3 266.436 Q2106.37 264.816 2102.88 264.816 Q2100.66 264.816 2098.55 265.348 Q2096.44 265.881 2094.5 266.946 L2094.5 263.01 Q2096.84 262.108 2099.04 261.668 Q2101.24 261.205 2103.32 261.205 Q2108.94 261.205 2111.72 264.122 Q2114.5 267.038 2114.5 272.964 Z" fill="#000000" fill-rule="evenodd" fill-opacity="1" /><path clip-path="url(#clip880)" d="M2127.49 254.469 L2127.49 261.83 L2136.26 261.83 L2136.26 265.14 L2127.49 265.14 L2127.49 279.214 Q2127.49 282.385 2128.34 283.288 Q2129.22 284.191 2131.88 284.191 L2136.26 284.191 L2136.26 287.756 L2131.88 287.756 Q2126.95 287.756 2125.08 285.927 Q2123.2 284.075 2123.2 279.214 L2123.2 265.14 L2120.08 265.14 L2120.08 261.83 L2123.2 261.83 L2123.2 254.469 L2127.49 254.469 Z" fill="#000000" fill-rule="evenodd" fill-opacity="1" /><path clip-path="url(#clip880)" d="M2141.86 261.83 L2146.12 261.83 L2146.12 287.756 L2141.86 287.756 L2141.86 261.83 M2141.86 251.737 L2146.12 251.737 L2146.12 257.131 L2141.86 257.131 L2141.86 251.737 Z" fill="#000000" fill-rule="evenodd" fill-opacity="1" /><path clip-path="url(#clip880)" d="M2165.08 264.816 Q2161.65 264.816 2159.66 267.501 Q2157.67 270.163 2157.67 274.816 Q2157.67 279.469 2159.64 282.154 Q2161.63 284.816 2165.08 284.816 Q2168.48 284.816 2170.47 282.131 Q2172.46 279.446 2172.46 274.816 Q2172.46 270.21 2170.47 267.524 Q2168.48 264.816 2165.08 264.816 M2165.08 261.205 Q2170.63 261.205 2173.8 264.816 Q2176.98 268.427 2176.98 274.816 Q2176.98 281.182 2173.8 284.816 Q2170.63 288.427 2165.08 288.427 Q2159.5 288.427 2156.33 284.816 Q2153.18 281.182 2153.18 274.816 Q2153.18 268.427 2156.33 264.816 Q2159.5 261.205 2165.08 261.205 Z" fill="#000000" fill-rule="evenodd" fill-opacity="1" /><path clip-path="url(#clip880)" d="M2205.59 272.108 L2205.59 287.756 L2201.33 287.756 L2201.33 272.247 Q2201.33 268.566 2199.89 266.737 Q2198.46 264.909 2195.59 264.909 Q2192.14 264.909 2190.15 267.108 Q2188.16 269.307 2188.16 273.103 L2188.16 287.756 L2183.87 287.756 L2183.87 261.83 L2188.16 261.83 L2188.16 265.858 Q2189.68 263.52 2191.74 262.362 Q2193.83 261.205 2196.54 261.205 Q2201 261.205 2203.3 263.983 Q2205.59 266.737 2205.59 272.108 Z" fill="#000000" fill-rule="evenodd" fill-opacity="1" /><path clip-path="url(#clip880)" d="M2230.61 262.594 L2230.61 266.622 Q2228.8 265.696 2226.86 265.233 Q2224.92 264.77 2222.83 264.77 Q2219.66 264.77 2218.06 265.742 Q2216.49 266.714 2216.49 268.659 Q2216.49 270.14 2217.62 270.997 Q2218.76 271.83 2222.18 272.594 L2223.64 272.918 Q2228.18 273.89 2230.08 275.672 Q2232 277.432 2232 280.603 Q2232 284.214 2229.13 286.321 Q2226.28 288.427 2221.28 288.427 Q2219.2 288.427 2216.93 288.01 Q2214.68 287.617 2212.18 286.807 L2212.18 282.409 Q2214.55 283.635 2216.84 284.26 Q2219.13 284.862 2221.37 284.862 Q2224.38 284.862 2226 283.844 Q2227.62 282.802 2227.62 280.927 Q2227.62 279.191 2226.44 278.265 Q2225.29 277.339 2221.33 276.483 L2219.85 276.135 Q2215.89 275.302 2214.13 273.589 Q2212.37 271.853 2212.37 268.844 Q2212.37 265.186 2214.96 263.196 Q2217.55 261.205 2222.32 261.205 Q2224.68 261.205 2226.77 261.552 Q2228.85 261.899 2230.61 262.594 Z" fill="#000000" fill-rule="evenodd" fill-opacity="1" /><path clip-path="url(#clip880)" d="M2260.33 272.108 L2260.33 287.756 L2256.07 287.756 L2256.07 272.247 Q2256.07 268.566 2254.64 266.737 Q2253.2 264.909 2250.33 264.909 Q2246.88 264.909 2244.89 267.108 Q2242.9 269.307 2242.9 273.103 L2242.9 287.756 L2238.62 287.756 L2238.62 251.737 L2242.9 251.737 L2242.9 265.858 Q2244.43 263.52 2246.49 262.362 Q2248.57 261.205 2251.28 261.205 Q2255.75 261.205 2258.04 263.983 Q2260.33 266.737 2260.33 272.108 Z" fill="#000000" fill-rule="evenodd" fill-opacity="1" /><path clip-path="url(#clip880)" d="M2268.83 261.83 L2273.09 261.83 L2273.09 287.756 L2268.83 287.756 L2268.83 261.83 M2268.83 251.737 L2273.09 251.737 L2273.09 257.131 L2268.83 257.131 L2268.83 251.737 Z" fill="#000000" fill-rule="evenodd" fill-opacity="1" /><path clip-path="url(#clip880)" d="M2286.12 283.867 L2286.12 297.617 L2281.84 297.617 L2281.84 261.83 L2286.12 261.83 L2286.12 265.765 Q2287.46 263.45 2289.5 262.339 Q2291.56 261.205 2294.41 261.205 Q2299.13 261.205 2302.07 264.955 Q2305.03 268.705 2305.03 274.816 Q2305.03 280.927 2302.07 284.677 Q2299.13 288.427 2294.41 288.427 Q2291.56 288.427 2289.5 287.316 Q2287.46 286.182 2286.12 283.867 M2300.61 274.816 Q2300.61 270.117 2298.66 267.455 Q2296.74 264.77 2293.36 264.77 Q2289.98 264.77 2288.04 267.455 Q2286.12 270.117 2286.12 274.816 Q2286.12 279.515 2288.04 282.2 Q2289.98 284.862 2293.36 284.862 Q2296.74 284.862 2298.66 282.2 Q2300.61 279.515 2300.61 274.816 Z" fill="#000000" fill-rule="evenodd" fill-opacity="1" /></svg>
