<?xml version="1.0" encoding="UTF-8" standalone="no"?>
<!DOCTYPE svg PUBLIC "-//W3C//DTD SVG 1.1//EN"
 "http://www.w3.org/Graphics/SVG/1.1/DTD/svg11.dtd">
<!-- Generated by graphviz version 2.40.1 (20161225.0304)
 -->
<!-- Title: %3 Pages: 1 -->
<svg width="424pt" height="349pt"
 viewBox="0.00 0.00 424.00 348.91" xmlns="http://www.w3.org/2000/svg" xmlns:xlink="http://www.w3.org/1999/xlink">
<g id="graph0" class="graph" transform="scale(1 1) rotate(0) translate(4 344.9066)">
<title>%3</title>
<polygon fill="#ffffff" stroke="transparent" points="-4,4 -4,-344.9066 420,-344.9066 420,4 -4,4"/>
<g id="clust1" class="cluster">
<title>cluster3 x 4</title>
<path fill="none" stroke="#000000" d="M20,-218.9533C20,-218.9533 96,-218.9533 96,-218.9533 102,-218.9533 108,-224.9533 108,-230.9533 108,-230.9533 108,-320.9066 108,-320.9066 108,-326.9066 102,-332.9066 96,-332.9066 96,-332.9066 20,-332.9066 20,-332.9066 14,-332.9066 8,-326.9066 8,-320.9066 8,-320.9066 8,-230.9533 8,-230.9533 8,-224.9533 14,-218.9533 20,-218.9533"/>
<text text-anchor="middle" x="86" y="-226.7533" font-family="Times,serif" font-size="14.00" fill="#000000">3 x 4</text>
</g>
<g id="clust2" class="cluster">
<title>cluster4 x 5</title>
<path fill="none" stroke="#000000" d="M128,-218.9533C128,-218.9533 204,-218.9533 204,-218.9533 210,-218.9533 216,-224.9533 216,-230.9533 216,-230.9533 216,-320.9066 216,-320.9066 216,-326.9066 210,-332.9066 204,-332.9066 204,-332.9066 128,-332.9066 128,-332.9066 122,-332.9066 116,-326.9066 116,-320.9066 116,-320.9066 116,-230.9533 116,-230.9533 116,-224.9533 122,-218.9533 128,-218.9533"/>
<text text-anchor="middle" x="194" y="-226.7533" font-family="Times,serif" font-size="14.00" fill="#000000">4 x 5</text>
</g>
<g id="clust3" class="cluster">
<title>cluster5 x 1</title>
<path fill="none" stroke="#000000" d="M236,-218.9533C236,-218.9533 312,-218.9533 312,-218.9533 318,-218.9533 324,-224.9533 324,-230.9533 324,-230.9533 324,-320.9066 324,-320.9066 324,-326.9066 318,-332.9066 312,-332.9066 312,-332.9066 236,-332.9066 236,-332.9066 230,-332.9066 224,-326.9066 224,-320.9066 224,-320.9066 224,-230.9533 224,-230.9533 224,-224.9533 230,-218.9533 236,-218.9533"/>
<text text-anchor="middle" x="302" y="-226.7533" font-family="Times,serif" font-size="14.00" fill="#000000">5 x 1</text>
</g>
<g id="clust4" class="cluster">
<title>cluster200 x 3</title>
<path fill="none" stroke="#000000" d="M344,-229.93C344,-229.93 396,-229.93 396,-229.93 402,-229.93 408,-235.93 408,-241.93 408,-241.93 408,-309.93 408,-309.93 408,-315.93 402,-321.93 396,-321.93 396,-321.93 344,-321.93 344,-321.93 338,-321.93 332,-315.93 332,-309.93 332,-309.93 332,-241.93 332,-241.93 332,-235.93 338,-229.93 344,-229.93"/>
<text text-anchor="middle" x="379" y="-237.73" font-family="Times,serif" font-size="14.00" fill="#000000">200 x 3</text>
</g>
<g id="clust5" class="cluster">
<title>cluster200</title>
<path fill="none" stroke="#000000" d="M176,-8C176,-8 264,-8 264,-8 270,-8 276,-14 276,-20 276,-20 276,-198.9533 276,-198.9533 276,-204.9533 270,-210.9533 264,-210.9533 264,-210.9533 176,-210.9533 176,-210.9533 170,-210.9533 164,-204.9533 164,-198.9533 164,-198.9533 164,-20 164,-20 164,-14 170,-8 176,-8"/>
<text text-anchor="middle" x="257.5" y="-15.8" font-family="Times,serif" font-size="14.00" fill="#000000">200</text>
</g>
<!-- w1 -->
<g id="node1" class="node">
<title>w1</title>
<ellipse fill="none" stroke="#000000" cx="58" cy="-287.43" rx="41.9398" ry="37.4533"/>
<text text-anchor="middle" x="58" y="-298.73" font-family="Times,serif" font-size="14.00" fill="#000000">w1</text>
<text text-anchor="middle" x="58" y="-283.73" font-family="Times,serif" font-size="14.00" fill="#000000">~</text>
<text text-anchor="middle" x="58" y="-268.73" font-family="Times,serif" font-size="14.00" fill="#000000">Normal</text>
</g>
<!-- Y_obs -->
<g id="node6" class="node">
<title>Y_obs</title>
<ellipse fill="#d3d3d3" stroke="#000000" cx="220" cy="-165.4767" rx="48.1667" ry="37.4533"/>
<text text-anchor="middle" x="220" y="-176.7767" font-family="Times,serif" font-size="14.00" fill="#000000">Y_obs</text>
<text text-anchor="middle" x="220" y="-161.7767" font-family="Times,serif" font-size="14.00" fill="#000000">~</text>
<text text-anchor="middle" x="220" y="-146.7767" font-family="Times,serif" font-size="14.00" fill="#000000">Bernoulli</text>
</g>
<!-- w1&#45;&gt;Y_obs -->
<g id="edge2" class="edge">
<title>w1&#45;&gt;Y_obs</title>
<path fill="none" stroke="#000000" d="M79.0542,-254.8632C88.1348,-242.5397 99.5353,-229.0621 112,-218.9533 128.404,-205.6498 148.6637,-194.523 167.1879,-185.9249"/>
<polygon fill="#000000" stroke="#000000" points="168.7142,-189.0762 176.4012,-181.7851 165.8452,-182.6911 168.7142,-189.0762"/>
</g>
<!-- w2 -->
<g id="node2" class="node">
<title>w2</title>
<ellipse fill="none" stroke="#000000" cx="166" cy="-287.43" rx="41.9398" ry="37.4533"/>
<text text-anchor="middle" x="166" y="-298.73" font-family="Times,serif" font-size="14.00" fill="#000000">w2</text>
<text text-anchor="middle" x="166" y="-283.73" font-family="Times,serif" font-size="14.00" fill="#000000">~</text>
<text text-anchor="middle" x="166" y="-268.73" font-family="Times,serif" font-size="14.00" fill="#000000">Normal</text>
</g>
<!-- w2&#45;&gt;Y_obs -->
<g id="edge5" class="edge">
<title>w2&#45;&gt;Y_obs</title>
<path fill="none" stroke="#000000" d="M181.4742,-252.4831C187.2477,-239.4443 193.8867,-224.4507 200.0092,-210.6238"/>
<polygon fill="#000000" stroke="#000000" points="203.2998,-211.8369 204.1483,-201.276 196.8992,-209.0027 203.2998,-211.8369"/>
</g>
<!-- w3 -->
<g id="node3" class="node">
<title>w3</title>
<ellipse fill="none" stroke="#000000" cx="274" cy="-287.43" rx="41.9398" ry="37.4533"/>
<text text-anchor="middle" x="274" y="-298.73" font-family="Times,serif" font-size="14.00" fill="#000000">w3</text>
<text text-anchor="middle" x="274" y="-283.73" font-family="Times,serif" font-size="14.00" fill="#000000">~</text>
<text text-anchor="middle" x="274" y="-268.73" font-family="Times,serif" font-size="14.00" fill="#000000">Normal</text>
</g>
<!-- w3&#45;&gt;Y_obs -->
<g id="edge3" class="edge">
<title>w3&#45;&gt;Y_obs</title>
<path fill="none" stroke="#000000" d="M258.5258,-252.4831C252.7523,-239.4443 246.1133,-224.4507 239.9908,-210.6238"/>
<polygon fill="#000000" stroke="#000000" points="243.1008,-209.0027 235.8517,-201.276 236.7002,-211.8369 243.1008,-209.0027"/>
</g>
<!-- features -->
<g id="node4" class="node">
<title>features</title>
<path fill="#d3d3d3" stroke="#000000" d="M387.5,-313.93C387.5,-313.93 352.5,-313.93 352.5,-313.93 346.5,-313.93 340.5,-307.93 340.5,-301.93 340.5,-301.93 340.5,-272.93 340.5,-272.93 340.5,-266.93 346.5,-260.93 352.5,-260.93 352.5,-260.93 387.5,-260.93 387.5,-260.93 393.5,-260.93 399.5,-266.93 399.5,-272.93 399.5,-272.93 399.5,-301.93 399.5,-301.93 399.5,-307.93 393.5,-313.93 387.5,-313.93"/>
<text text-anchor="middle" x="370" y="-298.73" font-family="Times,serif" font-size="14.00" fill="#000000">features</text>
<text text-anchor="middle" x="370" y="-283.73" font-family="Times,serif" font-size="14.00" fill="#000000">~</text>
<text text-anchor="middle" x="370" y="-268.73" font-family="Times,serif" font-size="14.00" fill="#000000">Data</text>
</g>
<!-- features&#45;&gt;Y_obs -->
<g id="edge4" class="edge">
<title>features&#45;&gt;Y_obs</title>
<path fill="none" stroke="#000000" d="M358.2001,-260.8899C351.0215,-247.0469 340.7684,-230.6165 328,-218.9533 312.3399,-204.6487 292.1471,-193.2875 273.467,-184.7817"/>
<polygon fill="#000000" stroke="#000000" points="274.7225,-181.5108 264.1577,-180.7146 271.9201,-187.9254 274.7225,-181.5108"/>
</g>
<!-- targets -->
<g id="node5" class="node">
<title>targets</title>
<path fill="#d3d3d3" stroke="#000000" d="M235,-92C235,-92 205,-92 205,-92 199,-92 193,-86 193,-80 193,-80 193,-51 193,-51 193,-45 199,-39 205,-39 205,-39 235,-39 235,-39 241,-39 247,-45 247,-51 247,-51 247,-80 247,-80 247,-86 241,-92 235,-92"/>
<text text-anchor="middle" x="220" y="-76.8" font-family="Times,serif" font-size="14.00" fill="#000000">targets</text>
<text text-anchor="middle" x="220" y="-61.8" font-family="Times,serif" font-size="14.00" fill="#000000">~</text>
<text text-anchor="middle" x="220" y="-46.8" font-family="Times,serif" font-size="14.00" fill="#000000">Data</text>
</g>
<!-- Y_obs&#45;&gt;targets -->
<g id="edge1" class="edge">
<title>Y_obs&#45;&gt;targets</title>
<path fill="none" stroke="#000000" d="M220,-127.9646C220,-119.6275 220,-110.7957 220,-102.4801"/>
<polygon fill="#000000" stroke="#000000" points="223.5001,-102.2991 220,-92.2991 216.5001,-102.2991 223.5001,-102.2991"/>
</g>
</g>
</svg>
