<?xml version="1.0" encoding="UTF-8" standalone="no"?>
<!DOCTYPE svg PUBLIC "-//W3C//DTD SVG 1.1//EN"
 "http://www.w3.org/Graphics/SVG/1.1/DTD/svg11.dtd">
<!-- Generated by graphviz version 2.47.0 (20210316.0004)
 -->
<!-- Pages: 1 -->
<svg width="378pt" height="371pt"
 viewBox="0.00 0.00 378.00 370.86" xmlns="http://www.w3.org/2000/svg" xmlns:xlink="http://www.w3.org/1999/xlink">
<g id="graph0" class="graph" transform="scale(1 1) rotate(0) translate(4 366.86)">
<polygon fill="white" stroke="transparent" points="-4,4 -4,-366.86 374,-366.86 374,4 -4,4"/>
<g id="clust1" class="cluster">
<title>cluster2</title>
<path fill="none" stroke="black" d="M20,-240.91C20,-240.91 340,-240.91 340,-240.91 346,-240.91 352,-246.91 352,-252.91 352,-252.91 352,-342.86 352,-342.86 352,-348.86 346,-354.86 340,-354.86 340,-354.86 20,-354.86 20,-354.86 14,-354.86 8,-348.86 8,-342.86 8,-342.86 8,-252.91 8,-252.91 8,-246.91 14,-240.91 20,-240.91"/>
<text text-anchor="middle" x="340.5" y="-248.71" font-family="Times,serif" font-size="14.00">2</text>
</g>
<g id="clust2" class="cluster">
<title>cluster30</title>
<path fill="none" stroke="black" d="M174,-8C174,-8 350,-8 350,-8 356,-8 362,-14 362,-20 362,-20 362,-220.91 362,-220.91 362,-226.91 356,-232.91 350,-232.91 350,-232.91 174,-232.91 174,-232.91 168,-232.91 162,-226.91 162,-220.91 162,-220.91 162,-20 162,-20 162,-14 168,-8 174,-8"/>
<text text-anchor="middle" x="347" y="-15.8" font-family="Times,serif" font-size="14.00">30</text>
</g>
<!-- scale -->
<g id="node1" class="node">
<title>scale</title>
<ellipse fill="none" stroke="black" cx="70" cy="-309.38" rx="54.39" ry="37.45"/>
<text text-anchor="middle" x="70" y="-320.68" font-family="Times,serif" font-size="14.00">scale</text>
<text text-anchor="middle" x="70" y="-305.68" font-family="Times,serif" font-size="14.00">~</text>
<text text-anchor="middle" x="70" y="-290.68" font-family="Times,serif" font-size="14.00">Lognormal</text>
</g>
<!-- obs -->
<g id="node6" class="node">
<title>obs</title>
<ellipse fill="lightgrey" stroke="black" cx="212" cy="-76.48" rx="41.94" ry="37.45"/>
<text text-anchor="middle" x="212" y="-87.78" font-family="Times,serif" font-size="14.00">obs</text>
<text text-anchor="middle" x="212" y="-72.78" font-family="Times,serif" font-size="14.00">~</text>
<text text-anchor="middle" x="212" y="-57.78" font-family="Times,serif" font-size="14.00">Normal</text>
</g>
<!-- scale&#45;&gt;obs -->
<g id="edge4" class="edge">
<title>scale&#45;&gt;obs</title>
<path fill="none" stroke="black" d="M85.22,-273.12C100.1,-240.15 124.34,-190.1 151,-149.95 159.2,-137.61 169.18,-124.97 178.68,-113.78"/>
<polygon fill="black" stroke="black" points="181.59,-115.76 185.48,-105.91 176.3,-111.19 181.59,-115.76"/>
</g>
<!-- locations -->
<g id="node2" class="node">
<title>locations</title>
<ellipse fill="none" stroke="black" cx="188" cy="-309.38" rx="45.92" ry="37.45"/>
<text text-anchor="middle" x="188" y="-320.68" font-family="Times,serif" font-size="14.00">locations</text>
<text text-anchor="middle" x="188" y="-305.68" font-family="Times,serif" font-size="14.00">~</text>
<text text-anchor="middle" x="188" y="-290.68" font-family="Times,serif" font-size="14.00">Normal</text>
</g>
<!-- locations&#45;&gt;obs -->
<g id="edge3" class="edge">
<title>locations&#45;&gt;obs</title>
<path fill="none" stroke="black" d="M172.85,-273.74C160.76,-241.2 147.86,-191.45 161,-149.95 164.99,-137.34 172.06,-125.02 179.68,-114.22"/>
<polygon fill="black" stroke="black" points="182.71,-116.02 185.87,-105.91 177.09,-111.84 182.71,-116.02"/>
</g>
<!-- pi -->
<g id="node3" class="node">
<title>pi</title>
<ellipse fill="none" stroke="black" cx="298" cy="-309.38" rx="45.92" ry="37.45"/>
<text text-anchor="middle" x="298" y="-320.68" font-family="Times,serif" font-size="14.00">pi</text>
<text text-anchor="middle" x="298" y="-305.68" font-family="Times,serif" font-size="14.00">~</text>
<text text-anchor="middle" x="298" y="-290.68" font-family="Times,serif" font-size="14.00">Dirichlet</text>
</g>
<!-- category -->
<g id="node4" class="node">
<title>category</title>
<ellipse fill="none" stroke="black" cx="298" cy="-187.43" rx="55.72" ry="37.45"/>
<text text-anchor="middle" x="298" y="-198.73" font-family="Times,serif" font-size="14.00">category</text>
<text text-anchor="middle" x="298" y="-183.73" font-family="Times,serif" font-size="14.00">~</text>
<text text-anchor="middle" x="298" y="-168.73" font-family="Times,serif" font-size="14.00">Categorical</text>
</g>
<!-- pi&#45;&gt;category -->
<g id="edge1" class="edge">
<title>pi&#45;&gt;category</title>
<path fill="none" stroke="black" d="M298,-271.74C298,-260.34 298,-247.6 298,-235.58"/>
<polygon fill="black" stroke="black" points="301.5,-235.26 298,-225.26 294.5,-235.26 301.5,-235.26"/>
</g>
<!-- category&#45;&gt;obs -->
<g id="edge2" class="edge">
<title>category&#45;&gt;obs</title>
<path fill="none" stroke="black" d="M272.43,-154.04C262.93,-141.99 252.05,-128.22 242.18,-115.71"/>
<polygon fill="black" stroke="black" points="244.8,-113.38 235.85,-107.7 239.3,-117.71 244.8,-113.38"/>
</g>
<!-- input -->
<g id="node5" class="node">
<title>input</title>
<path fill="lightgrey" stroke="black" d="M212,-213.93C212,-213.93 182,-213.93 182,-213.93 176,-213.93 170,-207.93 170,-201.93 170,-201.93 170,-172.93 170,-172.93 170,-166.93 176,-160.93 182,-160.93 182,-160.93 212,-160.93 212,-160.93 218,-160.93 224,-166.93 224,-172.93 224,-172.93 224,-201.93 224,-201.93 224,-207.93 218,-213.93 212,-213.93"/>
<text text-anchor="middle" x="197" y="-198.73" font-family="Times,serif" font-size="14.00">input</text>
<text text-anchor="middle" x="197" y="-183.73" font-family="Times,serif" font-size="14.00">~</text>
<text text-anchor="middle" x="197" y="-168.73" font-family="Times,serif" font-size="14.00">Data</text>
</g>
</g>
</svg>
