<?xml version="1.0" encoding="UTF-8" standalone="no"?>
<!DOCTYPE svg PUBLIC "-//W3C//DTD SVG 1.1//EN"
 "http://www.w3.org/Graphics/SVG/1.1/DTD/svg11.dtd">
<!-- Generated by graphviz version 2.50.0 (0)
 -->
<!-- Pages: 1 -->
<svg width="244pt" height="133pt"
 viewBox="0.00 0.00 244.00 133.00" xmlns="http://www.w3.org/2000/svg" xmlns:xlink="http://www.w3.org/1999/xlink">
<g id="graph0" class="graph" transform="scale(1 1) rotate(0) translate(4 129)">
<polygon fill="white" stroke="transparent" points="-4,4 -4,-129 240,-129 240,4 -4,4"/>
<!-- eps -->
<g id="node1" class="node">
<title>eps</title>
<ellipse fill="white" stroke="black" cx="27" cy="-98.5" rx="27" ry="18"/>
<text text-anchor="middle" x="27" y="-94.8" font-family="Times,serif" font-size="14.00">eps</text>
</g>
<!-- obs -->
<g id="node3" class="node">
<title>obs</title>
<ellipse fill="grey" stroke="black" cx="63" cy="-18" rx="27" ry="18"/>
<text text-anchor="middle" x="63" y="-14.3" font-family="Times,serif" font-size="14.00">obs</text>
</g>
<!-- eps&#45;&gt;obs -->
<g id="edge2" class="edge">
<title>eps&#45;&gt;obs</title>
<path fill="none" stroke="black" d="M34.63,-80.85C39.44,-70.37 45.74,-56.64 51.18,-44.77"/>
<polygon fill="black" stroke="black" points="54.51,-45.9 55.5,-35.35 48.15,-42.99 54.51,-45.9"/>
</g>
<!-- z -->
<g id="node2" class="node">
<title>z</title>
<ellipse fill="white" stroke="black" cx="99" cy="-98.5" rx="27" ry="18"/>
<text text-anchor="middle" x="99" y="-94.8" font-family="Times,serif" font-size="14.00">z</text>
</g>
<!-- z&#45;&gt;obs -->
<g id="edge1" class="edge">
<title>z&#45;&gt;obs</title>
<path fill="none" stroke="black" d="M91.37,-80.85C86.56,-70.37 80.26,-56.64 74.82,-44.77"/>
<polygon fill="black" stroke="black" points="77.85,-42.99 70.5,-35.35 71.49,-45.9 77.85,-42.99"/>
</g>
<!-- distribution_description_node -->
<g id="node4" class="node">
<title>distribution_description_node</title>
<text text-anchor="start" x="152" y="-109.8" font-family="Times,serif" font-size="14.00">eps ~ Normal</text>
<text text-anchor="start" x="152" y="-94.8" font-family="Times,serif" font-size="14.00">z ~ Normal</text>
<text text-anchor="start" x="152" y="-79.8" font-family="Times,serif" font-size="14.00">obs ~ Normal</text>
</g>
</g>
</svg>
