<?xml version="1.0" encoding="UTF-8" standalone="no"?>
<!DOCTYPE svg PUBLIC "-//W3C//DTD SVG 1.1//EN"
 "http://www.w3.org/Graphics/SVG/1.1/DTD/svg11.dtd">
<!-- Generated by graphviz version 2.50.0 (0)
 -->
<!-- Pages: 1 -->
<svg width="768pt" height="307pt"
 viewBox="0.00 0.00 768.00 307.00" xmlns="http://www.w3.org/2000/svg" xmlns:xlink="http://www.w3.org/1999/xlink">
<g id="graph0" class="graph" transform="scale(1 1) rotate(0) translate(4 303)">
<polygon fill="white" stroke="transparent" points="-4,4 -4,-303 764,-303 764,4 -4,4"/>
<g id="clust1" class="cluster">
<title>cluster_data</title>
<polygon fill="none" stroke="black" points="8,-8 8,-231 614,-231 614,-8 8,-8"/>
<text text-anchor="middle" x="594.5" y="-15.8" font-family="Times,serif" font-size="14.00">data</text>
</g>
<!-- z_0 -->
<g id="node1" class="node">
<title>z_0</title>
<ellipse fill="white" stroke="black" cx="579" cy="-205" rx="27" ry="18"/>
<text text-anchor="middle" x="579" y="-201.3" font-family="Times,serif" font-size="14.00">z_0</text>
</g>
<!-- observed_0 -->
<g id="node3" class="node">
<title>observed_0</title>
<ellipse fill="grey" stroke="black" cx="529" cy="-57" rx="51.19" ry="18"/>
<text text-anchor="middle" x="529" y="-53.3" font-family="Times,serif" font-size="14.00">observed_0</text>
</g>
<!-- z_0&#45;&gt;observed_0 -->
<g id="edge2" class="edge">
<title>z_0&#45;&gt;observed_0</title>
<path fill="none" stroke="black" d="M573.26,-187.25C564.68,-162.19 548.42,-114.7 538.17,-84.78"/>
<polygon fill="black" stroke="black" points="541.37,-83.33 534.82,-75 534.75,-85.6 541.37,-83.33"/>
</g>
<!-- eps_0 -->
<g id="node2" class="node">
<title>eps_0</title>
<ellipse fill="white" stroke="black" cx="503" cy="-205" rx="31.4" ry="18"/>
<text text-anchor="middle" x="503" y="-201.3" font-family="Times,serif" font-size="14.00">eps_0</text>
</g>
<!-- eps_0&#45;&gt;observed_0 -->
<g id="edge1" class="edge">
<title>eps_0&#45;&gt;observed_0</title>
<path fill="none" stroke="black" d="M506.03,-186.97C510.47,-162.04 518.78,-115.37 524.1,-85.54"/>
<polygon fill="black" stroke="black" points="527.6,-85.84 525.91,-75.38 520.71,-84.61 527.6,-85.84"/>
</g>
<!-- z_1 -->
<g id="node4" class="node">
<title>z_1</title>
<ellipse fill="white" stroke="black" cx="427" cy="-205" rx="27" ry="18"/>
<text text-anchor="middle" x="427" y="-201.3" font-family="Times,serif" font-size="14.00">z_1</text>
</g>
<!-- observed_1 -->
<g id="node6" class="node">
<title>observed_1</title>
<ellipse fill="grey" stroke="black" cx="379" cy="-57" rx="51.19" ry="18"/>
<text text-anchor="middle" x="379" y="-53.3" font-family="Times,serif" font-size="14.00">observed_1</text>
</g>
<!-- z_1&#45;&gt;observed_1 -->
<g id="edge3" class="edge">
<title>z_1&#45;&gt;observed_1</title>
<path fill="none" stroke="black" d="M421.49,-187.25C413.26,-162.19 397.64,-114.7 387.81,-84.78"/>
<polygon fill="black" stroke="black" points="391.04,-83.41 384.59,-75 384.39,-85.6 391.04,-83.41"/>
</g>
<!-- eps_1 -->
<g id="node5" class="node">
<title>eps_1</title>
<ellipse fill="white" stroke="black" cx="351" cy="-205" rx="31.4" ry="18"/>
<text text-anchor="middle" x="351" y="-201.3" font-family="Times,serif" font-size="14.00">eps_1</text>
</g>
<!-- eps_1&#45;&gt;observed_1 -->
<g id="edge4" class="edge">
<title>eps_1&#45;&gt;observed_1</title>
<path fill="none" stroke="black" d="M354.27,-186.97C359.05,-162.04 368,-115.37 373.72,-85.54"/>
<polygon fill="black" stroke="black" points="377.22,-85.86 375.67,-75.38 370.35,-84.54 377.22,-85.86"/>
</g>
<!-- z_2 -->
<g id="node7" class="node">
<title>z_2</title>
<ellipse fill="white" stroke="black" cx="275" cy="-205" rx="27" ry="18"/>
<text text-anchor="middle" x="275" y="-201.3" font-family="Times,serif" font-size="14.00">z_2</text>
</g>
<!-- observed_2 -->
<g id="node9" class="node">
<title>observed_2</title>
<ellipse fill="grey" stroke="black" cx="224" cy="-57" rx="51.19" ry="18"/>
<text text-anchor="middle" x="224" y="-53.3" font-family="Times,serif" font-size="14.00">observed_2</text>
</g>
<!-- z_2&#45;&gt;observed_2 -->
<g id="edge5" class="edge">
<title>z_2&#45;&gt;observed_2</title>
<path fill="none" stroke="black" d="M269.15,-187.25C260.4,-162.19 243.8,-114.7 233.36,-84.78"/>
<polygon fill="black" stroke="black" points="236.54,-83.29 229.94,-75 229.93,-85.6 236.54,-83.29"/>
</g>
<!-- eps_2 -->
<g id="node8" class="node">
<title>eps_2</title>
<ellipse fill="white" stroke="black" cx="199" cy="-205" rx="31.4" ry="18"/>
<text text-anchor="middle" x="199" y="-201.3" font-family="Times,serif" font-size="14.00">eps_2</text>
</g>
<!-- eps_2&#45;&gt;observed_2 -->
<g id="edge6" class="edge">
<title>eps_2&#45;&gt;observed_2</title>
<path fill="none" stroke="black" d="M201.92,-186.97C206.18,-162.04 214.18,-115.37 219.28,-85.54"/>
<polygon fill="black" stroke="black" points="222.79,-85.83 221.02,-75.38 215.89,-84.64 222.79,-85.83"/>
</g>
<!-- z_3 -->
<g id="node10" class="node">
<title>z_3</title>
<ellipse fill="white" stroke="black" cx="123" cy="-205" rx="27" ry="18"/>
<text text-anchor="middle" x="123" y="-201.3" font-family="Times,serif" font-size="14.00">z_3</text>
</g>
<!-- observed_3 -->
<g id="node12" class="node">
<title>observed_3</title>
<ellipse fill="grey" stroke="black" cx="98" cy="-57" rx="51.19" ry="18"/>
<text text-anchor="middle" x="98" y="-53.3" font-family="Times,serif" font-size="14.00">observed_3</text>
</g>
<!-- z_3&#45;&gt;observed_3 -->
<g id="edge8" class="edge">
<title>z_3&#45;&gt;observed_3</title>
<path fill="none" stroke="black" d="M120.08,-186.97C115.82,-162.04 107.82,-115.37 102.72,-85.54"/>
<polygon fill="black" stroke="black" points="106.11,-84.64 100.98,-75.38 99.21,-85.83 106.11,-84.64"/>
</g>
<!-- eps_3 -->
<g id="node11" class="node">
<title>eps_3</title>
<ellipse fill="white" stroke="black" cx="47" cy="-205" rx="31.4" ry="18"/>
<text text-anchor="middle" x="47" y="-201.3" font-family="Times,serif" font-size="14.00">eps_3</text>
</g>
<!-- eps_3&#45;&gt;observed_3 -->
<g id="edge7" class="edge">
<title>eps_3&#45;&gt;observed_3</title>
<path fill="none" stroke="black" d="M52.85,-187.25C61.6,-162.19 78.2,-114.7 88.64,-84.78"/>
<polygon fill="black" stroke="black" points="92.07,-85.6 92.06,-75 85.46,-83.29 92.07,-85.6"/>
</g>
<!-- distribution_description_node -->
<g id="node13" class="node">
<title>distribution_description_node</title>
<text text-anchor="start" x="632" y="-283.8" font-family="Times,serif" font-size="14.00">z_0 ~ Normal</text>
<text text-anchor="start" x="632" y="-268.8" font-family="Times,serif" font-size="14.00">eps_0 ~ Normal</text>
<text text-anchor="start" x="632" y="-253.8" font-family="Times,serif" font-size="14.00">observed_0 ~ Normal</text>
<text text-anchor="start" x="632" y="-238.8" font-family="Times,serif" font-size="14.00">z_1 ~ Normal</text>
<text text-anchor="start" x="632" y="-223.8" font-family="Times,serif" font-size="14.00">eps_1 ~ Normal</text>
<text text-anchor="start" x="632" y="-208.8" font-family="Times,serif" font-size="14.00">observed_1 ~ Normal</text>
<text text-anchor="start" x="632" y="-193.8" font-family="Times,serif" font-size="14.00">z_2 ~ Normal</text>
<text text-anchor="start" x="632" y="-178.8" font-family="Times,serif" font-size="14.00">eps_2 ~ Normal</text>
<text text-anchor="start" x="632" y="-163.8" font-family="Times,serif" font-size="14.00">observed_2 ~ Normal</text>
<text text-anchor="start" x="632" y="-148.8" font-family="Times,serif" font-size="14.00">z_3 ~ Normal</text>
<text text-anchor="start" x="632" y="-133.8" font-family="Times,serif" font-size="14.00">eps_3 ~ Normal</text>
<text text-anchor="start" x="632" y="-118.8" font-family="Times,serif" font-size="14.00">observed_3 ~ Normal</text>
</g>
</g>
</svg>
